<?xml version="1.0" encoding="utf-8"?>
<!-- Generator: Adobe Illustrator 16.0.0, SVG Export Plug-In . SVG Version: 6.00 Build 0)  -->
<!DOCTYPE svg PUBLIC "-//W3C//DTD SVG 1.1//EN" "http://www.w3.org/Graphics/SVG/1.1/DTD/svg11.dtd">
<svg version="1.1" id="Layer_1" xmlns="http://www.w3.org/2000/svg" xmlns:xlink="http://www.w3.org/1999/xlink" x="0px" y="0px"
	 width="300px" height="300px" viewBox="-100 -100 300 300" enable-background="new -100 -100 300 300" xml:space="preserve">
<title>bubbles</title>
<desc>Created with Sketch.</desc>
<path id="Combined-Shape" fill="#C4E86B" d="M-68.717-40.739c11.977,0,21.685-9.708,21.685-21.685
	c0-11.974-9.708-21.685-21.685-21.685s-21.685,9.711-21.685,21.685C-90.402-50.447-80.694-40.739-68.717-40.739z M79.979,36.707
	c11.977,0,21.685-9.708,21.685-21.685c0-11.974-9.708-21.685-21.685-21.685S58.294,3.048,58.294,15.022
	C58.294,26.999,68.002,36.707,79.979,36.707z M-53.229,15.022c5.133,0,9.294-4.16,9.294-9.293c0-5.131-4.161-9.294-9.294-9.294
	c-5.132,0-9.293,4.163-9.293,9.294C-62.521,10.862-58.36,15.022-53.229,15.022z M141.935,111.055c5.131,0,9.294-4.16,9.294-9.294
	c0-5.131-4.163-9.293-9.294-9.293s-9.293,4.162-9.293,9.293C132.642,106.895,136.804,111.055,141.935,111.055z M2.533,182.305
	c5.132,0,9.293-4.16,9.293-9.294c0-5.131-4.161-9.293-9.293-9.293s-9.293,4.162-9.293,9.293
	C-6.761,178.145-2.6,182.305,2.533,182.305z M176.011-53.13c5.131,0,9.294-4.16,9.294-9.293c0-5.131-4.163-9.293-9.294-9.293
	s-9.293,4.163-9.293,9.293C166.718-57.29,170.88-53.13,176.011-53.13z M-65.62,169.913c6.843,0,12.391-5.545,12.391-12.392
	c0-6.843-5.548-12.391-12.391-12.391c-6.843,0-12.391,5.548-12.391,12.391C-78.011,164.368-72.462,169.913-65.62,169.913z
	 M21.12-31.446c6.843,0,12.391-5.545,12.391-12.391c0-6.843-5.548-12.391-12.391-12.391S8.729-50.68,8.729-43.837
	C8.729-36.991,14.276-31.446,21.12-31.446z M92.369-65.521c8.556,0,15.489-6.934,15.489-15.489c0-8.552-6.934-15.489-15.489-15.489
	c-8.555,0-15.488,6.937-15.488,15.489C76.881-72.456,83.814-65.521,92.369-65.521z M73.782,120.348
	c6.844,0,12.392-5.545,12.392-12.391c0-6.844-5.548-12.392-12.392-12.392c-6.843,0-12.391,5.548-12.391,12.392
	C61.392,114.803,66.939,120.348,73.782,120.348z M163.619,188.5c8.556,0,15.489-6.934,15.489-15.489
	c0-8.552-6.934-15.489-15.489-15.489c-8.555,0-15.488,6.938-15.488,15.489C148.131,181.566,155.064,188.5,163.619,188.5z
	 M-3.663,98.663c8.554,0,15.489-6.934,15.489-15.489c0-8.552-6.936-15.489-15.489-15.489s-15.489,6.938-15.489,15.489
	C-19.152,91.729-12.217,98.663-3.663,98.663z M172.913,58.392c8.556,0,15.489-6.935,15.489-15.489
	c0-8.552-6.934-15.489-15.489-15.489s-15.489,6.937-15.489,15.489C157.424,51.457,164.357,58.392,172.913,58.392z M145.032-6.663
	c3.422,0,6.196-2.771,6.196-6.195c0-3.422-2.774-6.196-6.196-6.196c-3.421,0-6.195,2.774-6.195,6.196
	C138.837-9.434,141.611-6.663,145.032-6.663z M83.076,185.402c3.422,0,6.195-2.771,6.195-6.195c0-3.422-2.773-6.196-6.195-6.196
	s-6.195,2.774-6.195,6.196C76.881,182.631,79.654,185.402,83.076,185.402z M5.63,30.511c3.421,0,6.196-2.771,6.196-6.195
	c0-3.422-2.774-6.196-6.196-6.196s-6.196,2.774-6.196,6.196C-0.565,27.74,2.209,30.511,5.63,30.511z M-65.62,89.369
	c3.421,0,6.196-2.771,6.196-6.195c0-3.422-2.774-6.195-6.196-6.195s-6.196,2.773-6.196,6.195
	C-71.815,86.599-69.041,89.369-65.62,89.369z"/>
</svg>
