<?xml version="1.0" encoding="utf-8"?>
<!-- Generator: Adobe Illustrator 16.0.0, SVG Export Plug-In . SVG Version: 6.00 Build 0)  -->
<!DOCTYPE svg PUBLIC "-//W3C//DTD SVG 1.1//EN" "http://www.w3.org/Graphics/SVG/1.1/DTD/svg11.dtd">
<svg version="1.1" id="Layer_1" xmlns="http://www.w3.org/2000/svg" xmlns:xlink="http://www.w3.org/1999/xlink" x="0px" y="0px"
	 width="100px" height="100px" viewBox="0 0 100 100" enable-background="new 0 0 100 100" xml:space="preserve">
<g id="Logo_without_tagline_2_">
	<g>
		<g>
			<g>
				<path fill="#231F20" d="M4.129,70.449c0-1.529-0.202-2.662-0.607-3.396c-0.405-0.734-1.237-1.104-2.497-1.104H0.577v-1.348H5.03
					c1.049,0,1.858,0.143,2.428,0.428c0.57,0.283,1.019,0.771,1.35,1.461c1.769-1.559,3.807-2.338,6.118-2.338
					c3.028,0,5.359,1.025,6.995,3.08c1.633,2.055,2.451,4.701,2.451,7.939c0,3.24-0.831,5.887-2.497,7.939
					c-1.664,2.055-4.056,3.082-7.174,3.082c-1.23,0-2.384-0.225-3.464-0.676c-0.479-0.18-0.9-0.406-1.259-0.674v9.445H4.129V70.449z
					 M18.298,75.172c0-2.758-0.344-4.947-1.034-6.566c-0.69-1.621-1.77-2.43-3.239-2.43c-1.68,0-3.135,0.615-4.363,1.844
					l0.135,0.629c0.12,0.361,0.18,0.871,0.18,1.531v12.639c0.33,0.271,0.688,0.496,1.078,0.676c0.84,0.451,1.755,0.674,2.745,0.674
					C16.799,84.168,18.298,81.17,18.298,75.172z"/>
				<path fill="#231F20" d="M29.971,83.111c-1.635-2.053-2.452-4.699-2.452-7.939c0-3.238,0.832-5.885,2.497-7.939
					c1.664-2.055,4.056-3.08,7.175-3.08c1.08,0,2.233,0.225,3.463,0.674c0.45,0.209,0.87,0.436,1.26,0.676v-3.6
					c0-1.528-0.209-2.66-0.631-3.396c-0.419-0.735-1.258-1.103-2.519-1.103h-0.45v-1.351h5.399c1.078,0,1.904,0.181,2.473,0.542
					c0.57,0.358,0.976,0.951,1.215,1.775c0.239,0.825,0.359,2.003,0.359,3.531v23.84h-3.824l-1.573-2.023H42.14
					c-0.27,0.42-0.691,0.84-1.26,1.26c-1.02,0.809-2.325,1.215-3.914,1.215C33.937,86.193,31.605,85.166,29.971,83.111z
					 M40.879,82.729c0.33-0.328,0.675-0.824,1.035-1.484V67.523c-0.301-0.236-0.66-0.463-1.081-0.672
					c-0.959-0.451-1.873-0.676-2.742-0.676c-3,0-4.499,3-4.499,8.996c0,2.789,0.337,4.986,1.012,6.59
					c0.675,1.604,1.761,2.406,3.262,2.406C38.976,84.168,39.98,83.689,40.879,82.729z"/>
				<path fill="#231F20" d="M55.454,70.449c0-1.529-0.21-2.662-0.63-3.396s-1.259-1.104-2.52-1.104h-0.45v-1.348h5.399
					c1.079,0,1.903,0.18,2.474,0.539c0.57,0.361,0.975,0.953,1.214,1.777c0.24,0.824,0.361,2.002,0.361,3.531v15.293h-5.849V70.449z
					 M55.881,61.183c-0.585-0.659-0.877-1.468-0.877-2.429c0-0.779,0.231-1.394,0.697-1.845c0.465-0.45,1.057-0.675,1.775-0.675
					c1.081,0,1.913,0.33,2.498,0.989c0.585,0.661,0.878,1.471,0.878,2.431c0,0.779-0.232,1.395-0.697,1.843
					c-0.466,0.45-1.059,0.676-1.777,0.676C57.298,62.173,56.466,61.844,55.881,61.183z"/>
			</g>
		</g>
		<g>
			<path fill="#0090C7" d="M99.198,38.032c-1.318-3.944-4.317-4.869-4.428-4.902c0.067-0.091,1.911-2.632,0.593-6.578
				c-1.344-4.021-8.722-5.941-16.512-0.772c-9.097,6.236-14.902,16.496-14.613,17.55l-0.003,0.001c0,0.002,0.003,0.005,0.003,0.005
				c0.002,0.002,0,0.005,0,0.007l0.003-0.001c0.403,1.018,11.213,5.722,22.232,5.235C95.805,48.024,100.543,42.051,99.198,38.032z"
				/>
			<path fill="#F16531" d="M23.454,38.032c1.318-3.944,4.318-4.869,4.428-4.902c-0.067-0.091-1.91-2.632-0.593-6.578
				c1.345-4.021,8.723-5.941,16.512-0.772c9.096,6.236,14.902,16.496,14.614,17.55l0.003,0.001c0,0.002-0.003,0.005-0.003,0.005
				c-0.001,0.002-0.001,0.005-0.001,0.007l-0.004-0.001c-0.401,1.018-11.211,5.722-22.229,5.235
				C26.848,48.024,22.109,42.051,23.454,38.032z"/>
			<path fill="#79A242" d="M67.366,5.71c-4.158,0.004-5.981,2.559-6.047,2.652c-0.066-0.093-1.895-2.642-6.056-2.641
				c-4.24,0.009-8.394,6.402-5.947,15.425c3.045,10.599,10.946,19.35,12.037,19.409v0.002c0,0,0.005-0.001,0.006-0.002
				c0.004,0,0.005,0.001,0.007,0.001v-0.002c1.093-0.061,8.97-8.832,11.987-19.438C75.777,12.086,71.607,5.704,67.366,5.71z"/>
		</g>
	</g>
</g>
</svg>
