<?xml version="1.0" encoding="utf-8"?>
<!-- Generator: Adobe Illustrator 16.0.0, SVG Export Plug-In . SVG Version: 6.00 Build 0)  -->
<!DOCTYPE svg PUBLIC "-//W3C//DTD SVG 1.1//EN" "http://www.w3.org/Graphics/SVG/1.1/DTD/svg11.dtd">
<svg version="1.1" id="Layer_1" xmlns="http://www.w3.org/2000/svg" xmlns:xlink="http://www.w3.org/1999/xlink" x="0px" y="0px"
	 width="1500px" height="500px" viewBox="0 0 1500 500" enable-background="new 0 0 1500 500" xml:space="preserve">
<polygon fill="#EDE813" points="56.576,309.85 45.598,306.05 56.565,302.222 56.788,290.606 63.818,299.854 74.935,296.477 
	68.312,306.021 74.958,315.548 63.835,312.199 56.828,321.465 "/>
<polygon fill="#00B3E3" points="81.886,101.205 72.032,103.528 78.321,95.594 73.066,86.94 82.556,90.47 89.161,82.799 
	88.737,92.913 98.075,96.826 88.324,99.548 87.489,109.637 "/>
<g>
	<polygon fill="#C4E86B" points="339.854,101.534 328.292,104.265 335.667,94.952 329.497,84.801 340.633,88.937 348.381,79.932 
		347.889,91.801 358.848,96.387 347.407,99.587 346.433,111.427 	"/>
</g>
<g>
	<polygon fill="#C4E86B" points="89.496,215.63 74.958,206.57 91.98,204.658 96.103,188.033 103.183,203.631 120.268,202.414 
		107.621,213.967 114.058,229.84 99.163,221.382 86.056,232.409 	"/>
</g>
<polygon fill="#00B3E3" points="132.348,57.271 122.39,51.199 133.968,49.785 136.666,38.438 141.588,49.013 153.215,48.072 
	144.679,56.021 149.165,66.788 138.968,61.125 130.115,68.72 "/>
<polygon fill="#EDE813" points="132.38,110.646 122.39,99.32 137.251,102.008 144.935,89.006 146.972,103.97 161.712,107.261 
	148.109,113.822 149.535,128.857 139.091,117.948 125.231,123.95 "/>
<polygon fill="#72D0EB" points="184.515,254.047 180.945,243.266 190.433,249.51 199.583,242.783 196.577,253.734 205.803,260.358 
	194.458,260.885 191.009,271.705 187.002,261.078 175.646,261.142 "/>
<g>
	<polygon fill="#C4E86B" points="536.554,109.729 528.19,109.021 535.189,104.391 533.278,96.218 539.847,101.443 547.028,97.1 
		544.089,104.961 550.438,110.449 542.054,110.082 538.796,117.816 	"/>
</g>
<g>
	<polygon fill="#C4E86B" points="50.436,40.528 47.298,21.705 61.434,34.523 78.366,25.723 70.544,43.127 84.146,56.512 
		65.175,54.451 56.649,71.523 52.747,52.844 33.876,50.012 	"/>
</g>
<g>
	<polygon fill="#00B3E3" points="1323.273,65.838 1315.422,55.961 1327.706,58.839 1334.675,48.319 1335.733,60.893 1347.89,64.268 
		1336.261,69.161 1336.808,81.768 1328.56,72.218 1316.74,76.633 	"/>
</g>
<g>
	<polygon fill="#72D0EB" points="884.781,44.667 870.796,50.84 877.938,37.324 867.745,25.93 882.807,28.545 890.493,15.33 
		892.661,30.463 907.604,33.688 893.881,40.427 895.431,55.635 	"/>
</g>
<polygon fill="#EDE813" points="1139.44,51.268 1125.624,48.146 1138.397,42.025 1137.098,27.921 1146.865,38.178 1159.878,32.583 
	1153.142,45.042 1162.485,55.688 1148.553,53.133 1141.315,65.308 "/>
<polygon fill="#72D0EB" points="1399.75,64.576 1393.114,50.209 1407.229,57.364 1418.845,46.614 1416.402,62.25 1430.214,69.975 
	1414.589,72.482 1411.511,88.006 1404.297,73.921 1388.582,75.791 "/>
<polygon fill="#C4E86B" points="1451.147,213.854 1435.423,223.19 1441.966,206.113 1428.227,194.046 1446.487,194.99 
	1453.72,178.195 1458.464,195.855 1476.672,197.543 1461.344,207.512 1465.366,225.352 "/>
<g>
	<polygon fill="#C4E86B" points="1261.019,16.848 1258.517,3.056 1269.033,12.322 1281.376,5.682 1275.812,18.546 1285.943,28.232 
		1271.989,26.918 1265.907,39.545 1262.846,25.868 1248.956,23.984 	"/>
</g>
<g>
	<polygon fill="#00B3E3" points="1334.764,208.402 1321.533,208.932 1331.582,200.311 1326.991,187.892 1338.296,194.785 
		1348.688,186.58 1345.626,199.462 1356.64,206.811 1343.442,207.879 1339.856,220.625 	"/>
</g>
<polygon fill="#EDE813" points="1369.528,136.422 1358.201,136.273 1367.178,129.363 1363.82,118.545 1373.166,124.947 
	1382.417,118.409 1379.216,129.276 1388.292,136.055 1376.969,136.367 1373.325,147.096 "/>
<polygon fill="#EDE813" points="1475.409,56.457 1471.346,46.686 1480.595,51.831 1488.634,44.947 1486.598,55.332 1495.628,60.851 
	1485.121,62.123 1482.665,72.418 1478.207,62.819 1467.657,63.664 "/>
<polygon fill="#EDE813" points="323.472,209.152 308.439,213.12 317.77,200.684 309.351,187.613 324.062,192.645 333.89,180.598 
	333.652,196.143 348.146,201.769 333.288,206.346 332.417,221.868 "/>
<g>
	<polygon fill="#EDE813" points="424.149,51.556 410.128,45.923 424.62,41.644 425.645,26.568 434.19,39.029 448.845,35.344 
		439.637,47.324 447.67,60.122 433.43,55.065 423.741,66.661 	"/>
</g>
<polygon fill="#00B3E3" points="964.675,56.661 956.28,51.896 965.821,50.426 967.757,40.969 972.104,49.588 981.698,48.507 
	974.843,55.306 978.836,64.096 970.252,59.678 963.127,66.189 "/>
<g>
	<polygon fill="#C4E86B" points="1274.259,358.444 1266.046,352.393 1276.241,352.046 1279.46,342.366 1282.938,351.955 
		1293.14,352.025 1285.095,358.297 1288.182,368.021 1279.731,362.309 1271.437,368.248 	"/>
</g>
<g>
	<polygon fill="#C4E86B" points="1238.828,122.773 1233.859,115.119 1242.505,118.042 1248.25,110.95 1248.142,120.076 
		1256.661,123.348 1247.95,126.066 1247.471,135.179 1242.192,127.733 1233.378,130.093 	"/>
</g>
<g>
	<polygon fill="#00B3E3" points="1473.144,408.842 1468.175,401.188 1476.819,404.11 1482.565,397.02 1482.456,406.145 
		1490.976,409.416 1482.265,412.135 1481.786,421.248 1476.508,413.802 1467.692,416.162 	"/>
</g>
<polygon fill="#72D0EB" points="1075.948,117.083 1061.345,121.564 1070.02,108.99 1061.245,96.486 1075.885,100.852 
	1085.065,88.643 1085.436,103.915 1099.885,108.873 1085.477,113.946 1085.225,129.219 "/>
<polygon fill="#C4E86B" points="1456.2,300.195 1445.816,299.8 1454.207,293.668 1451.376,283.669 1459.8,289.756 1468.434,283.972 
	1465.249,293.865 1473.417,300.289 1463.025,300.316 1459.439,310.072 "/>
<polygon fill="#72D0EB" points="34.274,423.779 22.813,428.795 28.692,417.751 20.381,408.4 32.699,410.58 39.023,399.786 
	40.759,412.176 52.978,414.854 41.731,420.332 42.96,432.781 "/>
<polygon fill="#72D0EB" points="11.637,181.058 2.583,175.547 13.103,174.254 15.546,163.94 20.026,173.545 30.591,172.683 
	22.84,179.912 26.927,189.692 17.655,184.555 9.616,191.463 "/>
<polygon fill="#C4E86B" points="244.757,115.33 234.442,115.964 242.14,109.069 238.351,99.456 247.286,104.646 255.257,98.071 
	253.083,108.173 261.8,113.723 251.52,114.776 248.935,124.781 "/>
<polygon fill="#00B3E3" points="409.056,133.74 392.896,128.862 408.597,122.666 408.243,105.789 418.989,118.807 434.929,113.256 
	425.869,127.497 436.075,140.942 419.73,136.727 410.098,150.588 "/>
<polygon fill="#72D0EB" points="274.582,23.086 265.558,6.108 283.167,13.828 296.524,0 294.625,19.131 311.904,27.562 
	293.121,31.667 290.443,50.706 280.734,34.112 261.8,37.448 "/>
<polygon fill="#00B3E3" points="199.798,169.952 181.755,166.607 197.981,158.04 195.589,139.848 208.75,152.633 225.313,144.734 
	217.221,161.203 229.851,174.515 211.688,171.907 202.931,188.033 "/>
</svg>
