<?xml version="1.0" encoding="utf-8"?>
<!-- Generator: Adobe Illustrator 16.0.0, SVG Export Plug-In . SVG Version: 6.00 Build 0)  -->
<!DOCTYPE svg PUBLIC "-//W3C//DTD SVG 1.1//EN" "http://www.w3.org/Graphics/SVG/1.1/DTD/svg11.dtd">
<svg version="1.1" id="Layer_1" xmlns="http://www.w3.org/2000/svg" xmlns:xlink="http://www.w3.org/1999/xlink" x="0px" y="0px"
	 width="420px" height="419.999px" viewBox="293.301 -9.999 420 419.999" enable-background="new 293.301 -9.999 420 419.999"
	 xml:space="preserve">
<path fill="#89AC38" d="M566.938,104.607c75.314,0,136.363,48.487,136.363,108.297c0,42.707-31.13,79.636-76.351,97.268
	c-3.155,20.488,3.075,42.163,18.712,57.948c-30.012,0-55.367-20.035-63.708-47.572c-4.934,0.429-9.94,0.656-15.018,0.656
	c-75.311,0-136.363-48.487-136.363-108.3C430.571,153.094,491.628,104.607,566.938,104.607z"/>
<path fill="#C8E854" d="M439.663,31.88c-75.314,0-136.363,48.487-136.363,108.297c0,42.707,31.13,79.636,76.351,97.267
	c3.155,20.488-3.076,42.164-18.711,57.949c30.01,0,55.367-20.035,63.708-47.572c4.934,0.429,9.94,0.656,15.018,0.656
	c75.311,0,136.364-48.487,136.364-108.298S514.973,31.88,439.663,31.88z"/>
</svg>
