<?xml version="1.0" encoding="utf-8"?>
<!-- Generator: Adobe Illustrator 16.0.0, SVG Export Plug-In . SVG Version: 6.00 Build 0)  -->
<!DOCTYPE svg PUBLIC "-//W3C//DTD SVG 1.1//EN" "http://www.w3.org/Graphics/SVG/1.1/DTD/svg11.dtd">
<svg version="1.1" id="Capa_1" xmlns="http://www.w3.org/2000/svg" xmlns:xlink="http://www.w3.org/1999/xlink" x="0px" y="0px"
	 width="42.055px" height="42.055px" viewBox="0 0 42.055 42.055" enable-background="new 0 0 42.055 42.055" xml:space="preserve">
<g>
	<path fill="#FFFFFF" d="M42.054,21.168c0,10.001-6.987,18.354-16.345,20.485V24.185h5.054v-5.833h-5.104V17.05
		c0-2.5,1.094-4.531,3.697-4.531c1.043,0,1.877,0.156,2.555,0.364l0.312-6.094c-1.095-0.312-2.445-0.521-4.218-0.521
		c-2.291,0-5.053,0.68-7.03,2.554c-2.293,2.084-3.23,5.469-3.23,8.541v0.989H14.41v5.833h3.333v17.729
		C7.694,40.334,0,31.661,0,21.168C0,9.555,9.415,0.14,21.028,0.14C32.641,0.139,42.054,9.554,42.054,21.168z"/>
</g>
</svg>
