<?xml version="1.0" encoding="utf-8"?>
<!-- Generator: Adobe Illustrator 16.0.0, SVG Export Plug-In . SVG Version: 6.00 Build 0)  -->
<!DOCTYPE svg PUBLIC "-//W3C//DTD SVG 1.1//EN" "http://www.w3.org/Graphics/SVG/1.1/DTD/svg11.dtd">
<svg version="1.1" id="Layer_1" xmlns="http://www.w3.org/2000/svg" xmlns:xlink="http://www.w3.org/1999/xlink" x="0px" y="0px"
	 width="300px" height="150px" viewBox="0 0 300 150" enable-background="new 0 0 300 150" xml:space="preserve">
<g id="Main_5_">
	<g enable-background="new    ">
		<path fill="#A6A8A7" d="M40.126,135.099l1.184-5.542h-0.627l0.321-1.184h0.564l0.737-3.488l2.375-0.313l-0.815,3.802h1.262
			l-0.313,1.184h-1.208l-0.854,4.014c0.292,0.214,0.598,0.321,0.917,0.321s0.617-0.101,0.894-0.302s0.529-0.473,0.756-0.815
			c0.228-0.342,0.43-0.742,0.607-1.199s0.328-0.943,0.451-1.458c0.123-0.515,0.216-1.044,0.278-1.588
			c0.063-0.543,0.094-1.071,0.094-1.583c0-0.502-0.029-0.948-0.086-1.341c-0.057-0.392-0.167-0.721-0.329-0.987
			s-0.387-0.471-0.674-0.611c-0.288-0.142-0.662-0.212-1.121-0.212c-0.653,0-1.245,0.089-1.775,0.267
			c-0.531,0.178-0.987,0.435-1.368,0.772c-0.381,0.337-0.675,0.746-0.882,1.227s-0.31,1.026-0.31,1.639
			c0,0.203,0.012,0.369,0.035,0.497s0.048,0.23,0.075,0.306c0.026,0.076,0.051,0.135,0.074,0.177s0.035,0.078,0.035,0.109
			c-0.277,0-0.522-0.027-0.737-0.082s-0.393-0.143-0.537-0.263c-0.144-0.12-0.254-0.279-0.33-0.479
			c-0.076-0.198-0.113-0.443-0.113-0.736c0-0.355,0.077-0.706,0.231-1.051s0.366-0.671,0.635-0.979
			c0.269-0.309,0.585-0.593,0.948-0.854s0.752-0.487,1.168-0.678c0.416-0.191,0.849-0.34,1.301-0.447s0.903-0.16,1.352-0.16
			c0.617,0,1.16,0.055,1.631,0.164c0.47,0.109,0.876,0.263,1.219,0.459c0.342,0.195,0.627,0.43,0.854,0.701s0.409,0.568,0.545,0.89
			c0.136,0.321,0.232,0.661,0.29,1.02c0.057,0.357,0.086,0.725,0.086,1.101c0,0.69-0.055,1.366-0.165,2.026
			c-0.11,0.661-0.263,1.286-0.458,1.874s-0.431,1.128-0.706,1.618c-0.274,0.492-0.576,0.915-0.905,1.271s-0.681,0.632-1.054,0.831
			c-0.374,0.198-0.759,0.298-1.156,0.298c-0.313,0-0.632-0.068-0.957-0.204s-0.658-0.353-1.003-0.65l-0.133,0.643H40.126z"/>
		<path fill="#A6A8A7" d="M58.188,129c-0.314,0.329-0.719,0.608-1.215,0.839c-0.497,0.229-1.04,0.395-1.63,0.494
			c-0.063,0.742-0.205,1.41-0.427,2.006c-0.222,0.597-0.503,1.104-0.843,1.521s-0.729,0.739-1.168,0.964s-0.904,0.337-1.396,0.337
			c-0.376,0-0.721-0.046-1.035-0.137c-0.313-0.092-0.584-0.238-0.811-0.439c-0.228-0.201-0.405-0.462-0.533-0.783
			c-0.128-0.322-0.192-0.713-0.192-1.173c0-0.313,0.033-0.67,0.098-1.069c0.065-0.4,0.169-0.812,0.31-1.234
			c0.141-0.424,0.326-0.838,0.556-1.243c0.23-0.404,0.507-0.767,0.831-1.085c0.324-0.319,0.702-0.576,1.133-0.772
			s0.921-0.294,1.47-0.294c1.369,0,2.054,0.854,2.054,2.563v0.016c0.026,0.011,0.052,0.016,0.079,0.016c0.026,0,0.06,0,0.102,0
			c0.188,0,0.391-0.027,0.608-0.082c0.217-0.056,0.434-0.127,0.65-0.216s0.43-0.192,0.639-0.31c0.208-0.118,0.399-0.236,0.572-0.357
			L58.188,129z M55.036,125.903l-0.854-1.137l-2.226,1.137h-0.627l3.002-2.673h0.298l0.854,2.673H55.036z M54.009,130.38
			c-0.167-0.042-0.281-0.124-0.341-0.247s-0.09-0.266-0.09-0.428c0-0.225,0.044-0.408,0.133-0.552
			c0.089-0.145,0.209-0.25,0.36-0.318c-0.01-0.172-0.027-0.317-0.051-0.435s-0.059-0.214-0.106-0.29s-0.106-0.13-0.176-0.161
			c-0.071-0.031-0.161-0.047-0.271-0.047c-0.193,0-0.379,0.074-0.557,0.224c-0.178,0.148-0.346,0.347-0.505,0.592
			c-0.16,0.246-0.305,0.526-0.435,0.843c-0.131,0.316-0.245,0.642-0.341,0.976c-0.097,0.335-0.171,0.665-0.223,0.992
			c-0.052,0.326-0.079,0.623-0.079,0.89s0.015,0.483,0.043,0.65c0.028,0.167,0.076,0.299,0.141,0.396
			c0.065,0.097,0.15,0.164,0.254,0.2c0.104,0.037,0.232,0.055,0.384,0.055c0.193,0,0.388-0.086,0.584-0.259
			c0.196-0.172,0.377-0.407,0.545-0.705c0.167-0.298,0.314-0.65,0.443-1.059C53.851,131.289,53.946,130.85,54.009,130.38z
			 M56.188,124.202l-0.839-2.673h1.262l0.416,2.673H56.188z"/>
		<path fill="#A6A8A7" d="M64.991,132.222c-0.225,0.658-0.466,1.184-0.725,1.576c-0.258,0.392-0.52,0.69-0.784,0.897
			c-0.264,0.206-0.522,0.341-0.776,0.403c-0.254,0.062-0.487,0.094-0.702,0.094c-0.355,0-0.653-0.051-0.894-0.152
			c-0.241-0.103-0.434-0.238-0.58-0.408c-0.146-0.169-0.252-0.362-0.317-0.58c-0.065-0.217-0.098-0.439-0.098-0.67
			c0-0.271,0.038-0.589,0.114-0.952c0.076-0.363,0.158-0.735,0.247-1.117s0.171-0.75,0.247-1.105s0.114-0.661,0.114-0.917
			c0-0.549-0.193-0.823-0.58-0.823c-0.146,0-0.282,0.039-0.408,0.118c-0.125,0.078-0.24,0.184-0.345,0.317
			c-0.105,0.133-0.199,0.29-0.282,0.47c-0.084,0.181-0.157,0.373-0.22,0.576l-1.089,5.15h-2.312l1.701-8.027h2.312l-0.172,0.831
			c0.172-0.193,0.344-0.349,0.514-0.466c0.169-0.118,0.335-0.208,0.498-0.271c0.162-0.063,0.315-0.104,0.458-0.126
			c0.144-0.021,0.278-0.031,0.404-0.031c0.256,0,0.494,0.034,0.713,0.102c0.22,0.068,0.409,0.176,0.568,0.322
			c0.159,0.146,0.283,0.334,0.373,0.564c0.088,0.229,0.133,0.504,0.133,0.822c0,0.215-0.02,0.446-0.059,0.694
			s-0.087,0.501-0.145,0.76s-0.119,0.517-0.184,0.772c-0.065,0.256-0.127,0.502-0.184,0.737c-0.058,0.234-0.106,0.453-0.145,0.654
			c-0.04,0.201-0.059,0.378-0.059,0.529c0,0.198,0.046,0.36,0.137,0.485c0.091,0.126,0.26,0.188,0.506,0.188
			c0.172,0,0.324-0.034,0.455-0.102c0.13-0.068,0.248-0.165,0.353-0.29c0.104-0.126,0.2-0.276,0.286-0.451s0.171-0.367,0.255-0.576
			H64.991z"/>
		<path fill="#A6A8A7" d="M68.174,134.299c-0.121,0.126-0.249,0.242-0.384,0.349c-0.136,0.107-0.284,0.202-0.443,0.282
			c-0.16,0.081-0.331,0.146-0.514,0.192c-0.183,0.047-0.379,0.07-0.588,0.07c-0.277,0-0.543-0.044-0.799-0.133
			c-0.256-0.089-0.483-0.235-0.682-0.439c-0.199-0.203-0.358-0.47-0.478-0.799c-0.12-0.33-0.18-0.732-0.18-1.208
			c0-0.365,0.037-0.757,0.109-1.176c0.073-0.418,0.186-0.836,0.337-1.254c0.151-0.418,0.341-0.819,0.568-1.203
			c0.227-0.384,0.494-0.724,0.799-1.02c0.306-0.295,0.652-0.53,1.039-0.705s0.812-0.263,1.278-0.263
			c0.455,0,0.785,0.078,0.992,0.235c0.207,0.156,0.31,0.35,0.31,0.58v0.031l0.157-0.769h2.328l-1.959,9.312
			c-0.115,0.575-0.284,1.04-0.506,1.396s-0.468,0.633-0.737,0.831s-0.551,0.332-0.847,0.399c-0.295,0.068-0.574,0.103-0.835,0.103
			c-0.24,0-0.474-0.042-0.701-0.126c-0.228-0.083-0.429-0.201-0.604-0.353c-0.175-0.151-0.316-0.333-0.423-0.545
			c-0.107-0.211-0.161-0.448-0.161-0.709c0-0.376,0.072-0.692,0.216-0.948c0.144-0.257,0.341-0.474,0.592-0.651
			s0.545-0.328,0.882-0.45c0.337-0.123,0.699-0.242,1.086-0.356L68.174,134.299z M67.916,135.482
			c-0.251,0.084-0.486,0.178-0.706,0.282c-0.22,0.104-0.409,0.224-0.568,0.357c-0.16,0.133-0.285,0.284-0.376,0.454
			c-0.091,0.17-0.137,0.362-0.137,0.576c0,0.062,0.016,0.126,0.047,0.188s0.076,0.118,0.133,0.168
			c0.057,0.05,0.125,0.092,0.204,0.126c0.079,0.033,0.165,0.051,0.259,0.051c0.083,0,0.171-0.02,0.263-0.059
			c0.091-0.039,0.179-0.107,0.263-0.204c0.083-0.097,0.162-0.227,0.235-0.388c0.073-0.162,0.136-0.363,0.188-0.604L67.916,135.482z
			 M69.389,128.545c-0.011-0.052-0.027-0.109-0.051-0.172c-0.024-0.062-0.059-0.123-0.106-0.181s-0.111-0.105-0.192-0.145
			c-0.082-0.039-0.185-0.059-0.31-0.059c-0.225,0-0.438,0.073-0.639,0.219c-0.201,0.146-0.385,0.341-0.553,0.584
			c-0.167,0.243-0.316,0.519-0.447,0.827s-0.242,0.626-0.333,0.952c-0.092,0.327-0.161,0.648-0.208,0.965
			c-0.047,0.316-0.07,0.6-0.07,0.851c0,0.308,0.029,0.546,0.086,0.713c0.058,0.167,0.127,0.291,0.208,0.372s0.168,0.13,0.263,0.146
			c0.094,0.016,0.177,0.023,0.25,0.023c0.11,0,0.226-0.024,0.349-0.074c0.123-0.05,0.244-0.124,0.364-0.224s0.23-0.225,0.33-0.376
			c0.099-0.151,0.18-0.329,0.243-0.533L69.389,128.545z"/>
		<path fill="#A6A8A7" d="M84.283,132.222c-0.225,0.658-0.466,1.184-0.725,1.576c-0.258,0.392-0.52,0.69-0.784,0.897
			c-0.264,0.206-0.522,0.341-0.776,0.403c-0.254,0.062-0.487,0.094-0.702,0.094c-0.355,0-0.653-0.051-0.894-0.152
			c-0.241-0.103-0.434-0.238-0.58-0.408c-0.146-0.169-0.252-0.362-0.317-0.58c-0.065-0.217-0.098-0.439-0.098-0.67
			c0-0.271,0.038-0.589,0.114-0.952c0.076-0.363,0.158-0.735,0.247-1.117s0.171-0.75,0.247-1.105s0.114-0.661,0.114-0.917
			c0-0.549-0.193-0.823-0.58-0.823c-0.146,0-0.282,0.039-0.408,0.118c-0.125,0.078-0.24,0.184-0.345,0.317
			c-0.105,0.133-0.199,0.29-0.282,0.47c-0.084,0.181-0.157,0.373-0.22,0.576l-1.089,5.15h-2.312l2.328-10.92l2.375-0.321
			l-0.862,4.045c0.172-0.193,0.344-0.349,0.514-0.466c0.169-0.118,0.335-0.208,0.498-0.271c0.162-0.063,0.315-0.104,0.458-0.126
			c0.144-0.021,0.278-0.031,0.404-0.031c0.256,0,0.494,0.034,0.713,0.102c0.22,0.068,0.409,0.176,0.568,0.322
			c0.159,0.146,0.283,0.334,0.373,0.564c0.088,0.229,0.133,0.504,0.133,0.822c0,0.215-0.02,0.446-0.059,0.694
			s-0.087,0.501-0.145,0.76s-0.119,0.517-0.184,0.772c-0.065,0.256-0.127,0.502-0.184,0.737c-0.058,0.234-0.106,0.453-0.145,0.654
			c-0.04,0.201-0.059,0.378-0.059,0.529c0,0.198,0.046,0.36,0.137,0.485c0.091,0.126,0.26,0.188,0.506,0.188
			c0.172,0,0.324-0.034,0.455-0.102c0.13-0.068,0.248-0.165,0.353-0.29c0.104-0.126,0.2-0.276,0.286-0.451s0.171-0.367,0.255-0.576
			H84.283z"/>
		<path fill="#A6A8A7" d="M92.726,132.222c-0.152,0.434-0.316,0.811-0.494,1.129s-0.362,0.588-0.552,0.808
			c-0.191,0.22-0.386,0.397-0.584,0.533c-0.199,0.136-0.392,0.24-0.58,0.313c-0.188,0.073-0.369,0.122-0.541,0.148
			s-0.329,0.039-0.47,0.039c-0.455,0-0.817-0.124-1.086-0.372s-0.433-0.615-0.49-1.102c-0.131,0.184-0.274,0.362-0.431,0.537
			s-0.332,0.332-0.525,0.471s-0.409,0.251-0.646,0.337s-0.5,0.129-0.788,0.129c-0.277,0-0.543-0.044-0.799-0.133
			c-0.256-0.089-0.483-0.235-0.682-0.439c-0.199-0.203-0.358-0.47-0.478-0.799c-0.12-0.33-0.18-0.732-0.18-1.208
			c0-0.365,0.037-0.757,0.109-1.176c0.073-0.418,0.186-0.836,0.337-1.254c0.151-0.418,0.341-0.819,0.568-1.203
			c0.227-0.384,0.494-0.724,0.799-1.02c0.306-0.295,0.652-0.53,1.039-0.705s0.812-0.263,1.278-0.263
			c0.455,0,0.785,0.078,0.992,0.235c0.207,0.156,0.31,0.35,0.31,0.58v0.117l0.172-0.854h2.312l-1.152,5.456
			c-0.026,0.089-0.044,0.177-0.055,0.263c-0.011,0.086-0.016,0.171-0.016,0.255c0,0.46,0.219,0.689,0.658,0.689
			c0.157,0,0.302-0.04,0.435-0.121s0.255-0.189,0.365-0.325c0.109-0.136,0.206-0.297,0.29-0.482c0.083-0.186,0.154-0.38,0.211-0.584
			H92.726z M88.681,128.601c0-0.048-0.011-0.106-0.031-0.177c-0.021-0.07-0.056-0.139-0.106-0.204s-0.116-0.12-0.2-0.164
			c-0.084-0.045-0.191-0.066-0.322-0.066c-0.225,0-0.438,0.073-0.639,0.219c-0.201,0.146-0.385,0.341-0.553,0.584
			c-0.167,0.243-0.316,0.519-0.447,0.827s-0.242,0.626-0.333,0.952c-0.092,0.327-0.161,0.648-0.208,0.965
			c-0.047,0.316-0.07,0.6-0.07,0.851c0,0.308,0.029,0.546,0.086,0.713c0.058,0.167,0.127,0.291,0.208,0.372s0.168,0.13,0.263,0.146
			c0.094,0.016,0.177,0.023,0.25,0.023c0.121,0,0.247-0.03,0.38-0.09c0.133-0.061,0.261-0.149,0.384-0.267
			c0.123-0.118,0.235-0.266,0.337-0.443s0.179-0.384,0.231-0.619L88.681,128.601z M88.022,126.092l-0.948-3.033h1.685l0.471,3.033
			H88.022z"/>
		<path fill="#A6A8A7" d="M100.831,132.222c-0.225,0.658-0.466,1.184-0.725,1.576c-0.258,0.392-0.52,0.69-0.784,0.897
			c-0.264,0.206-0.522,0.341-0.776,0.403c-0.254,0.062-0.487,0.094-0.702,0.094c-0.355,0-0.653-0.051-0.894-0.152
			c-0.241-0.103-0.434-0.238-0.58-0.408c-0.146-0.169-0.252-0.362-0.317-0.58c-0.065-0.217-0.098-0.439-0.098-0.67
			c0-0.271,0.038-0.589,0.114-0.952c0.076-0.363,0.158-0.735,0.247-1.117s0.171-0.75,0.247-1.105s0.114-0.661,0.114-0.917
			c0-0.549-0.193-0.823-0.58-0.823c-0.146,0-0.282,0.039-0.408,0.118c-0.125,0.078-0.24,0.184-0.345,0.317
			c-0.105,0.133-0.199,0.29-0.282,0.47c-0.084,0.181-0.157,0.373-0.22,0.576l-1.089,5.15H91.44l1.701-8.027h2.312l-0.172,0.831
			c0.172-0.193,0.344-0.349,0.514-0.466c0.169-0.118,0.335-0.208,0.498-0.271c0.162-0.063,0.315-0.104,0.458-0.126
			c0.144-0.021,0.278-0.031,0.404-0.031c0.256,0,0.494,0.034,0.713,0.102c0.22,0.068,0.409,0.176,0.568,0.322
			c0.159,0.146,0.283,0.334,0.373,0.564c0.088,0.229,0.133,0.504,0.133,0.822c0,0.215-0.02,0.446-0.059,0.694
			s-0.087,0.501-0.145,0.76s-0.119,0.517-0.184,0.772c-0.065,0.256-0.127,0.502-0.184,0.737c-0.058,0.234-0.106,0.453-0.145,0.654
			c-0.04,0.201-0.059,0.378-0.059,0.529c0,0.198,0.046,0.36,0.137,0.485c0.091,0.126,0.26,0.188,0.506,0.188
			c0.172,0,0.324-0.034,0.455-0.102c0.13-0.068,0.248-0.165,0.353-0.29c0.104-0.126,0.2-0.276,0.286-0.451s0.171-0.367,0.255-0.576
			H100.831z"/>
		<path fill="#A6A8A7" d="M99.53,135.099l2.328-10.92l2.375-0.321l-0.862,4.029c0.172-0.188,0.344-0.34,0.514-0.454
			c0.169-0.115,0.335-0.204,0.498-0.267c0.162-0.063,0.315-0.104,0.458-0.126c0.144-0.021,0.278-0.031,0.404-0.031
			c0.256,0,0.494,0.034,0.713,0.102c0.219,0.068,0.409,0.176,0.568,0.322c0.159,0.146,0.283,0.334,0.372,0.564
			c0.089,0.229,0.133,0.504,0.133,0.822c0,0.215-0.02,0.446-0.059,0.694s-0.087,0.501-0.145,0.76s-0.119,0.517-0.184,0.772
			c-0.065,0.256-0.127,0.502-0.185,0.737c-0.057,0.234-0.105,0.453-0.145,0.654c-0.039,0.201-0.059,0.378-0.059,0.529
			c0,0.198,0.046,0.36,0.137,0.485c0.091,0.126,0.26,0.188,0.505,0.188c0.256,0,0.434-0.034,0.533-0.102
			c-0.037,0.292-0.11,0.542-0.219,0.748c-0.11,0.207-0.245,0.378-0.404,0.514c-0.16,0.136-0.337,0.235-0.533,0.298
			s-0.401,0.094-0.615,0.094c-0.309,0-0.566-0.051-0.772-0.152c-0.207-0.103-0.373-0.238-0.498-0.408
			c-0.125-0.169-0.214-0.362-0.267-0.58c-0.052-0.217-0.078-0.439-0.078-0.67c0-0.271,0.038-0.589,0.114-0.952
			c0.076-0.363,0.158-0.735,0.247-1.117s0.171-0.75,0.247-1.105s0.114-0.661,0.114-0.917c0-0.549-0.193-0.823-0.58-0.823
			c-0.136,0-0.263,0.033-0.38,0.098c-0.118,0.065-0.227,0.157-0.329,0.274c-0.102,0.118-0.195,0.255-0.278,0.412
			c-0.083,0.156-0.157,0.324-0.22,0.502l-1.136,5.346H99.53z"/>
		<path fill="#A6A8A7" d="M115.874,132.222c-0.151,0.434-0.32,0.811-0.505,1.129c-0.186,0.318-0.379,0.588-0.58,0.808
			s-0.408,0.397-0.62,0.533c-0.211,0.136-0.417,0.24-0.615,0.313s-0.388,0.122-0.568,0.148c-0.18,0.026-0.341,0.039-0.482,0.039
			c-0.24,0-0.465-0.036-0.674-0.109s-0.391-0.188-0.544-0.345c-0.154-0.157-0.276-0.355-0.365-0.596s-0.133-0.53-0.133-0.87
			c0-0.146,0.011-0.308,0.031-0.482c0.021-0.175,0.052-0.364,0.094-0.568l0.964-4.507h-0.533l0.133-0.644h0.525l0.486-2.218
			l2.375-0.321l-0.549,2.539h0.964l-0.125,0.644h-0.964l-1.027,4.812c-0.026,0.089-0.043,0.177-0.051,0.263
			s-0.012,0.171-0.012,0.255c0,0.225,0.052,0.38,0.157,0.467c0.104,0.086,0.269,0.129,0.494,0.129c0.157,0,0.31-0.035,0.458-0.105
			c0.149-0.071,0.286-0.169,0.412-0.294c0.125-0.126,0.237-0.276,0.337-0.451c0.099-0.175,0.18-0.364,0.243-0.568H115.874z"/>
		<path fill="#A6A8A7" d="M114.588,135.099l1.701-8.027h2.312l-0.204,0.996c0.141-0.126,0.285-0.248,0.431-0.368
			c0.146-0.121,0.299-0.227,0.458-0.318c0.16-0.091,0.325-0.165,0.498-0.223c0.172-0.058,0.355-0.087,0.548-0.087
			c0.183,0,0.344,0.034,0.482,0.103c0.138,0.067,0.254,0.156,0.349,0.267c0.094,0.109,0.165,0.237,0.212,0.384
			c0.047,0.146,0.07,0.298,0.07,0.455c0,0.141-0.023,0.28-0.07,0.419c-0.047,0.139-0.119,0.263-0.216,0.372
			c-0.097,0.11-0.218,0.2-0.364,0.271c-0.146,0.07-0.316,0.106-0.51,0.106c-0.151,0-0.268-0.026-0.349-0.079
			c-0.081-0.052-0.143-0.117-0.185-0.195c-0.042-0.079-0.072-0.164-0.09-0.255c-0.019-0.092-0.038-0.177-0.059-0.255
			s-0.048-0.144-0.082-0.196c-0.034-0.052-0.09-0.078-0.168-0.078c-0.246,0-0.452,0.056-0.62,0.168
			c-0.167,0.113-0.35,0.261-0.548,0.443l-1.286,6.099H114.588z"/>
		<path fill="#A6A8A7" d="M127.945,132.222c-0.225,0.376-0.482,0.742-0.772,1.098s-0.617,0.672-0.98,0.948
			c-0.363,0.277-0.766,0.501-1.207,0.67c-0.442,0.17-0.926,0.255-1.454,0.255c-0.382,0-0.727-0.048-1.035-0.145
			c-0.309-0.097-0.572-0.247-0.792-0.451c-0.219-0.203-0.388-0.466-0.505-0.787c-0.118-0.322-0.176-0.71-0.176-1.164
			c0-0.309,0.031-0.664,0.094-1.066c0.063-0.402,0.162-0.815,0.298-1.238c0.136-0.424,0.316-0.839,0.541-1.247
			c0.225-0.407,0.497-0.771,0.815-1.093c0.318-0.322,0.692-0.58,1.121-0.776c0.429-0.196,0.917-0.294,1.466-0.294
			c0.361,0,0.655,0.043,0.882,0.129c0.228,0.087,0.408,0.2,0.541,0.341c0.133,0.142,0.225,0.305,0.274,0.49s0.075,0.378,0.075,0.576
			c0,0.466-0.102,0.897-0.306,1.298c-0.204,0.399-0.477,0.748-0.819,1.046s-0.736,0.538-1.18,0.722
			c-0.444,0.183-0.907,0.29-1.388,0.321c-0.01,0.12-0.02,0.233-0.027,0.341s-0.012,0.208-0.012,0.302
			c0,0.271,0.025,0.495,0.074,0.67c0.05,0.176,0.123,0.312,0.22,0.412c0.097,0.099,0.217,0.168,0.36,0.207
			c0.144,0.04,0.312,0.06,0.506,0.06c0.319,0,0.607-0.042,0.866-0.126c0.259-0.083,0.5-0.198,0.725-0.345s0.438-0.318,0.639-0.518
			c0.201-0.198,0.404-0.41,0.607-0.635H127.945z M127.115,126.092l-0.964-1.285l-2.524,1.285h-0.705l3.402-3.033h0.337l0.964,3.033
			H127.115z M123.563,131.085c0.303-0.021,0.596-0.106,0.878-0.259c0.282-0.151,0.53-0.349,0.745-0.592s0.385-0.52,0.514-0.831
			c0.128-0.311,0.192-0.633,0.192-0.968c0-0.198-0.029-0.357-0.086-0.479c-0.057-0.12-0.162-0.18-0.313-0.18
			c-0.204,0-0.403,0.098-0.6,0.294c-0.196,0.195-0.38,0.45-0.553,0.764c-0.172,0.314-0.325,0.668-0.458,1.062
			S123.642,130.688,123.563,131.085z"/>
		<path fill="#A6A8A7" d="M126.785,135.099l1.701-8.027h2.312l-0.172,0.831c0.172-0.193,0.344-0.349,0.514-0.466
			c0.169-0.118,0.335-0.208,0.498-0.271c0.162-0.063,0.315-0.104,0.458-0.126c0.144-0.021,0.278-0.031,0.404-0.031
			c0.256,0,0.494,0.034,0.713,0.102c0.22,0.068,0.409,0.176,0.568,0.322c0.159,0.146,0.283,0.334,0.373,0.564
			c0.088,0.229,0.133,0.504,0.133,0.822c0,0.215-0.02,0.446-0.059,0.694s-0.087,0.501-0.145,0.76s-0.119,0.517-0.184,0.772
			c-0.065,0.256-0.127,0.502-0.184,0.737c-0.058,0.234-0.106,0.453-0.145,0.654c-0.04,0.201-0.059,0.378-0.059,0.529
			c0,0.198,0.046,0.36,0.137,0.485c0.091,0.126,0.26,0.188,0.506,0.188c0.266,0,0.444-0.034,0.533-0.102
			c-0.037,0.292-0.11,0.542-0.219,0.748c-0.11,0.207-0.243,0.378-0.4,0.514s-0.334,0.235-0.533,0.298s-0.402,0.094-0.611,0.094
			c-0.309,0-0.567-0.051-0.776-0.152c-0.209-0.103-0.376-0.238-0.502-0.408c-0.125-0.169-0.214-0.362-0.267-0.58
			c-0.052-0.217-0.078-0.439-0.078-0.67c0-0.271,0.038-0.589,0.114-0.952c0.076-0.363,0.158-0.735,0.247-1.117
			s0.171-0.75,0.247-1.105s0.114-0.661,0.114-0.917c0-0.549-0.193-0.823-0.58-0.823c-0.146,0-0.282,0.039-0.408,0.118
			c-0.125,0.078-0.24,0.184-0.345,0.317c-0.105,0.133-0.199,0.29-0.282,0.47c-0.084,0.181-0.157,0.373-0.22,0.576l-1.089,5.15
			H126.785z"/>
		<path fill="#A6A8A7" d="M141.522,135.099l1.176-5.542c0.031-0.126,0.047-0.259,0.047-0.399c0-0.095-0.008-0.184-0.024-0.267
			c-0.016-0.084-0.043-0.158-0.082-0.224s-0.089-0.118-0.149-0.157s-0.137-0.059-0.231-0.059c-0.157,0-0.302,0.039-0.435,0.118
			c-0.133,0.078-0.253,0.186-0.36,0.321c-0.107,0.136-0.203,0.295-0.286,0.478c-0.084,0.184-0.157,0.377-0.22,0.58l-1.089,5.15
			h-2.312l1.701-8.027h2.312l-0.172,0.831c0.172-0.193,0.345-0.349,0.518-0.466c0.172-0.118,0.342-0.209,0.509-0.274
			c0.167-0.065,0.33-0.11,0.486-0.134s0.306-0.035,0.447-0.035c0.209,0,0.405,0.025,0.588,0.074c0.183,0.05,0.345,0.13,0.486,0.239
			c0.141,0.11,0.261,0.252,0.361,0.428c0.099,0.175,0.169,0.388,0.211,0.639c0.193-0.298,0.392-0.537,0.596-0.718
			c0.204-0.18,0.402-0.317,0.596-0.411s0.379-0.157,0.557-0.188s0.34-0.047,0.486-0.047c0.256,0,0.493,0.034,0.709,0.102
			c0.217,0.068,0.405,0.176,0.564,0.322c0.16,0.146,0.284,0.334,0.373,0.564c0.089,0.229,0.133,0.504,0.133,0.822
			c0,0.215-0.02,0.446-0.059,0.694c-0.039,0.248-0.086,0.501-0.141,0.76c-0.055,0.259-0.116,0.517-0.184,0.772
			s-0.129,0.502-0.184,0.737c-0.055,0.234-0.102,0.453-0.141,0.654s-0.059,0.378-0.059,0.529c0,0.198,0.046,0.36,0.137,0.485
			c0.092,0.126,0.26,0.188,0.506,0.188c0.256,0,0.434-0.034,0.533-0.102c-0.037,0.292-0.11,0.542-0.22,0.748
			c-0.11,0.207-0.244,0.378-0.404,0.514c-0.159,0.136-0.337,0.235-0.533,0.298c-0.196,0.062-0.401,0.094-0.616,0.094
			c-0.308,0-0.565-0.051-0.772-0.152c-0.207-0.103-0.373-0.238-0.498-0.408c-0.125-0.169-0.214-0.362-0.267-0.58
			c-0.052-0.217-0.079-0.439-0.079-0.67c0-0.271,0.038-0.589,0.114-0.952s0.158-0.735,0.247-1.117s0.171-0.75,0.247-1.105
			s0.114-0.661,0.114-0.917c0-0.549-0.193-0.823-0.58-0.823c-0.146,0-0.282,0.039-0.408,0.118c-0.125,0.078-0.24,0.184-0.345,0.317
			c-0.104,0.133-0.199,0.29-0.282,0.47c-0.083,0.181-0.157,0.373-0.219,0.576l-1.09,5.15H141.522z"/>
		<path fill="#A6A8A7" d="M158.353,129c-0.313,0.329-0.719,0.608-1.216,0.839c-0.496,0.229-1.039,0.395-1.63,0.494
			c-0.063,0.742-0.205,1.41-0.427,2.006c-0.223,0.597-0.504,1.104-0.844,1.521s-0.729,0.739-1.168,0.964
			c-0.438,0.225-0.904,0.337-1.395,0.337c-0.377,0-0.721-0.046-1.035-0.137c-0.313-0.092-0.584-0.238-0.811-0.439
			c-0.228-0.201-0.405-0.462-0.533-0.783c-0.128-0.322-0.192-0.713-0.192-1.173c0-0.313,0.033-0.67,0.098-1.069
			c0.065-0.4,0.169-0.812,0.31-1.234c0.141-0.424,0.326-0.838,0.556-1.243c0.23-0.404,0.507-0.767,0.831-1.085
			c0.324-0.319,0.702-0.576,1.133-0.772s0.921-0.294,1.47-0.294c1.369,0,2.054,0.854,2.054,2.563v0.016
			c0.026,0.011,0.052,0.016,0.079,0.016c0.025,0,0.06,0,0.102,0c0.188,0,0.391-0.027,0.607-0.082
			c0.217-0.056,0.434-0.127,0.65-0.216s0.43-0.192,0.639-0.31c0.209-0.118,0.4-0.236,0.572-0.357L158.353,129z M154.174,130.38
			c-0.167-0.042-0.281-0.124-0.341-0.247s-0.09-0.266-0.09-0.428c0-0.225,0.044-0.408,0.134-0.552
			c0.088-0.145,0.209-0.25,0.359-0.318c-0.01-0.172-0.027-0.317-0.051-0.435s-0.059-0.214-0.105-0.29s-0.105-0.13-0.176-0.161
			c-0.071-0.031-0.161-0.047-0.271-0.047c-0.193,0-0.379,0.074-0.557,0.224c-0.178,0.148-0.346,0.347-0.505,0.592
			c-0.159,0.246-0.305,0.526-0.435,0.843c-0.131,0.316-0.245,0.642-0.342,0.976c-0.097,0.335-0.171,0.665-0.223,0.992
			c-0.053,0.326-0.079,0.623-0.079,0.89s0.015,0.483,0.044,0.65c0.027,0.167,0.075,0.299,0.141,0.396
			c0.064,0.097,0.15,0.164,0.254,0.2c0.105,0.037,0.232,0.055,0.385,0.055c0.193,0,0.389-0.086,0.584-0.259
			c0.195-0.172,0.377-0.407,0.545-0.705c0.167-0.298,0.314-0.65,0.443-1.059C154.016,131.289,154.111,130.85,154.174,130.38z
			 M155.209,125.903l-0.854-1.137l-2.226,1.137h-0.628l3.003-2.673h0.297l0.855,2.673H155.209z M157.004,121.396
			c-0.025,0.136-0.094,0.269-0.203,0.399c-0.11,0.131-0.248,0.25-0.412,0.356c-0.164,0.107-0.349,0.193-0.553,0.259
			c-0.203,0.065-0.412,0.099-0.627,0.099c-0.184,0-0.354-0.022-0.514-0.067c-0.159-0.044-0.312-0.091-0.459-0.141
			s-0.289-0.097-0.431-0.142c-0.142-0.044-0.29-0.066-0.446-0.066c-0.268,0-0.51,0.097-0.729,0.29l-0.07-0.023
			c0.173-0.36,0.418-0.632,0.737-0.815c0.318-0.183,0.689-0.274,1.112-0.274c0.198,0,0.376,0.02,0.533,0.06
			c0.157,0.039,0.304,0.081,0.442,0.125c0.139,0.045,0.275,0.086,0.412,0.125c0.136,0.04,0.285,0.06,0.447,0.06
			c0.135,0,0.265-0.021,0.388-0.063c0.122-0.041,0.224-0.104,0.302-0.188L157.004,121.396z"/>
		<path fill="#A6A8A7" d="M157.467,127.071h2.312l-1.152,5.456c-0.026,0.089-0.043,0.177-0.051,0.263s-0.012,0.171-0.012,0.255
			c0,0.225,0.052,0.38,0.156,0.467c0.104,0.086,0.27,0.129,0.494,0.129c0.151,0,0.262-0.011,0.329-0.031s0.13-0.045,0.188-0.07
			c-0.021,0.287-0.086,0.534-0.192,0.74c-0.107,0.207-0.241,0.378-0.403,0.514s-0.346,0.236-0.549,0.302
			c-0.204,0.065-0.41,0.098-0.619,0.098c-0.24,0-0.466-0.036-0.675-0.109s-0.391-0.188-0.544-0.345
			c-0.154-0.157-0.276-0.355-0.365-0.596s-0.133-0.53-0.133-0.87c0-0.146,0.01-0.308,0.031-0.482
			c0.021-0.175,0.052-0.364,0.094-0.568L157.467,127.071z M160.344,124.939c0,0.178-0.034,0.344-0.102,0.498
			c-0.068,0.154-0.161,0.287-0.279,0.399c-0.117,0.112-0.254,0.201-0.407,0.267c-0.154,0.065-0.32,0.098-0.498,0.098
			s-0.343-0.032-0.497-0.098s-0.289-0.154-0.404-0.267s-0.205-0.245-0.271-0.399s-0.098-0.32-0.098-0.498s0.032-0.344,0.098-0.498
			c0.065-0.153,0.155-0.29,0.271-0.407c0.115-0.118,0.25-0.21,0.404-0.278s0.319-0.102,0.497-0.102s0.344,0.033,0.498,0.102
			c0.153,0.068,0.29,0.16,0.407,0.278c0.118,0.117,0.211,0.254,0.279,0.407C160.31,124.596,160.344,124.762,160.344,124.939z"/>
		<path fill="#A6A8A7" d="M164.93,124.179l2.375-0.321l-0.769,3.614c0.162-0.1,0.308-0.18,0.435-0.239
			c0.129-0.061,0.244-0.105,0.35-0.138c0.104-0.031,0.199-0.051,0.285-0.059c0.087-0.008,0.169-0.012,0.248-0.012
			c0.281,0,0.539,0.047,0.771,0.142c0.232,0.094,0.433,0.249,0.6,0.466c0.168,0.217,0.297,0.501,0.389,0.851
			c0.091,0.351,0.137,0.779,0.137,1.286c0,0.313-0.03,0.665-0.09,1.054c-0.061,0.39-0.158,0.785-0.295,1.188
			c-0.135,0.402-0.315,0.795-0.54,1.176c-0.226,0.382-0.499,0.722-0.823,1.02s-0.705,0.537-1.145,0.717
			c-0.439,0.181-0.943,0.271-1.513,0.271c-0.742,0-1.302-0.18-1.678-0.541c-0.376-0.36-0.564-0.864-0.564-1.513
			c0-0.151,0.008-0.304,0.023-0.458c0.017-0.154,0.044-0.308,0.087-0.459L164.93,124.179z M165.446,132.527
			c-0.031,0.136-0.047,0.259-0.047,0.368c0,0.497,0.282,0.745,0.847,0.745c0.172,0,0.34-0.059,0.502-0.177
			c0.162-0.117,0.312-0.274,0.45-0.47c0.139-0.196,0.266-0.426,0.38-0.69c0.115-0.264,0.213-0.54,0.295-0.83
			c0.08-0.29,0.143-0.587,0.188-0.891c0.045-0.303,0.066-0.596,0.066-0.878c0-0.192-0.017-0.383-0.051-0.568
			c-0.033-0.185-0.086-0.351-0.156-0.497s-0.16-0.263-0.267-0.349c-0.107-0.087-0.234-0.13-0.38-0.13
			c-0.059,0-0.131,0.004-0.221,0.012c-0.088,0.008-0.18,0.023-0.273,0.047s-0.182,0.054-0.263,0.091
			c-0.081,0.036-0.146,0.083-0.192,0.141L165.446,132.527z"/>
		<path fill="#A6A8A7" d="M179.117,132.222c-0.151,0.434-0.316,0.811-0.494,1.129s-0.361,0.588-0.553,0.808
			c-0.19,0.22-0.385,0.397-0.584,0.533c-0.198,0.136-0.391,0.24-0.58,0.313c-0.188,0.073-0.367,0.122-0.54,0.148
			s-0.329,0.039-0.471,0.039c-0.46,0-0.825-0.126-1.097-0.38c-0.272-0.253-0.438-0.634-0.494-1.141
			c-0.204,0.329-0.41,0.594-0.619,0.792s-0.416,0.353-0.619,0.462c-0.205,0.11-0.402,0.182-0.596,0.216s-0.375,0.051-0.541,0.051
			c-0.24,0-0.466-0.036-0.675-0.109s-0.391-0.188-0.544-0.345c-0.154-0.157-0.276-0.355-0.365-0.596s-0.133-0.53-0.133-0.87
			c0-0.146,0.01-0.308,0.031-0.482c0.021-0.175,0.052-0.364,0.094-0.568l1.09-5.15h2.312l-1.152,5.456
			c-0.031,0.167-0.047,0.319-0.047,0.455c0,0.183,0.033,0.338,0.102,0.466c0.068,0.129,0.193,0.192,0.376,0.192
			c0.157,0,0.301-0.035,0.431-0.105c0.131-0.071,0.25-0.169,0.357-0.294c0.107-0.126,0.201-0.276,0.282-0.451
			s0.153-0.364,0.216-0.568l1.09-5.15h1.677c0.136-0.094,0.247-0.198,0.333-0.313c0.086-0.114,0.156-0.24,0.208-0.376
			s0.087-0.277,0.106-0.423c0.018-0.146,0.027-0.299,0.027-0.455c0-0.267-0.029-0.53-0.087-0.792
			c0.126-0.089,0.266-0.163,0.419-0.224c0.154-0.06,0.305-0.09,0.451-0.09c0.162,0,0.303,0.053,0.42,0.157s0.176,0.287,0.176,0.549
			c0,0.24-0.04,0.488-0.121,0.744s-0.192,0.505-0.334,0.745c-0.141,0.24-0.308,0.465-0.501,0.674s-0.399,0.387-0.619,0.533
			l-0.995,4.727c-0.027,0.089-0.045,0.177-0.056,0.263s-0.016,0.171-0.016,0.255c0,0.225,0.054,0.38,0.161,0.467
			c0.107,0.086,0.273,0.129,0.498,0.129c0.156,0,0.301-0.035,0.435-0.105c0.134-0.071,0.255-0.169,0.364-0.294
			c0.109-0.126,0.207-0.276,0.29-0.451s0.154-0.364,0.212-0.568H179.117z"/>
		<path fill="#A6A8A7" d="M184.691,129.65c0,0.779-0.106,1.503-0.318,2.172c-0.211,0.669-0.502,1.25-0.869,1.744
			c-0.369,0.493-0.805,0.882-1.31,1.164s-1.046,0.423-1.626,0.423c-0.764,0-1.342-0.241-1.736-0.725s-0.592-1.188-0.592-2.113
			c0-0.485,0.052-0.956,0.156-1.41c0.104-0.455,0.254-0.881,0.447-1.278c0.193-0.396,0.424-0.76,0.693-1.09
			c0.27-0.329,0.565-0.609,0.89-0.843c0.323-0.232,0.673-0.414,1.046-0.544c0.374-0.131,0.762-0.196,1.164-0.196
			c0.664,0,1.163,0.19,1.498,0.572c0.156-0.089,0.284-0.193,0.384-0.313c0.099-0.12,0.179-0.251,0.239-0.393
			c0.06-0.141,0.1-0.288,0.121-0.442s0.031-0.314,0.031-0.482c0-0.267-0.028-0.53-0.086-0.791c0.125-0.089,0.266-0.164,0.42-0.224
			c0.153-0.061,0.304-0.091,0.45-0.091c0.162,0,0.302,0.053,0.419,0.157c0.118,0.104,0.177,0.287,0.177,0.549
			s-0.046,0.529-0.138,0.804c-0.091,0.274-0.218,0.538-0.38,0.791c-0.161,0.254-0.351,0.486-0.563,0.698
			c-0.215,0.212-0.442,0.383-0.683,0.514C184.637,128.674,184.691,129.123,184.691,129.65z M182.786,127.832
			c-0.167,0-0.336,0.064-0.506,0.192c-0.169,0.128-0.335,0.303-0.493,0.524c-0.16,0.223-0.311,0.481-0.451,0.776
			c-0.141,0.296-0.264,0.613-0.369,0.952c-0.104,0.34-0.186,0.69-0.246,1.051s-0.09,0.716-0.09,1.066
			c0,0.438,0.049,0.758,0.148,0.956s0.259,0.298,0.479,0.298c0.172,0,0.346-0.06,0.521-0.181c0.174-0.12,0.34-0.287,0.497-0.501
			c0.157-0.215,0.305-0.467,0.442-0.757c0.139-0.29,0.258-0.603,0.357-0.937c0.1-0.335,0.178-0.688,0.235-1.059
			s0.086-0.742,0.086-1.113c0-0.402-0.054-0.714-0.161-0.937C183.13,127.943,182.979,127.832,182.786,127.832z M181.963,126.092
			l1.458-3.033h1.686l-1.944,3.033H181.963z"/>
		<path fill="#A6A8A7" d="M190.437,132.817c-0.083,0.465-0.214,0.85-0.392,1.152c-0.178,0.304-0.39,0.546-0.635,0.729
			c-0.246,0.183-0.52,0.311-0.82,0.384c-0.3,0.073-0.612,0.109-0.936,0.109c-0.371,0-0.71-0.048-1.016-0.145
			s-0.566-0.247-0.783-0.451c-0.218-0.203-0.387-0.466-0.506-0.787c-0.121-0.322-0.181-0.71-0.181-1.164
			c0-0.309,0.031-0.665,0.094-1.07c0.063-0.405,0.163-0.819,0.302-1.242c0.139-0.424,0.318-0.839,0.541-1.247
			c0.223-0.407,0.492-0.771,0.812-1.089c0.319-0.319,0.69-0.576,1.117-0.772c0.426-0.196,0.91-0.294,1.454-0.294
			c0.35,0,0.64,0.042,0.87,0.125c0.229,0.084,0.413,0.196,0.548,0.337c0.137,0.142,0.23,0.301,0.283,0.479
			c0.052,0.178,0.078,0.36,0.078,0.549c0,0.204-0.023,0.379-0.07,0.525s-0.109,0.265-0.188,0.356s-0.169,0.159-0.271,0.204
			c-0.102,0.044-0.207,0.066-0.317,0.066c-0.198,0-0.387-0.062-0.564-0.188c0.063-0.167,0.11-0.329,0.146-0.485
			c0.033-0.157,0.051-0.312,0.051-0.463c0-0.193-0.035-0.352-0.105-0.475c-0.071-0.122-0.182-0.184-0.334-0.184
			c-0.172,0-0.342,0.077-0.51,0.231c-0.167,0.153-0.328,0.356-0.481,0.607c-0.154,0.251-0.297,0.538-0.427,0.862
			c-0.131,0.324-0.245,0.655-0.342,0.995s-0.172,0.674-0.227,1.004c-0.056,0.329-0.083,0.627-0.083,0.894
			c0,0.25,0.023,0.462,0.071,0.635c0.047,0.172,0.113,0.31,0.199,0.411c0.086,0.103,0.188,0.176,0.306,0.22s0.247,0.066,0.388,0.066
			c0.157,0,0.322-0.026,0.494-0.078c0.172-0.053,0.346-0.121,0.518-0.208c0.172-0.086,0.337-0.182,0.494-0.286
			C190.17,133.026,190.311,132.922,190.437,132.817z"/>
		<path fill="#A6A8A7" d="M199.404,132.222c-0.151,0.434-0.32,0.811-0.506,1.129s-0.379,0.588-0.58,0.808s-0.407,0.397-0.619,0.533
			c-0.211,0.136-0.416,0.24-0.615,0.313s-0.388,0.122-0.568,0.148c-0.18,0.026-0.341,0.039-0.482,0.039
			c-0.24,0-0.465-0.036-0.674-0.109s-0.391-0.188-0.545-0.345c-0.154-0.157-0.275-0.355-0.364-0.596s-0.134-0.53-0.134-0.87
			c0-0.146,0.012-0.308,0.031-0.482c0.021-0.175,0.053-0.364,0.095-0.568l0.964-4.507h-0.533l0.134-0.644h0.525l0.485-2.218
			l2.375-0.321l-0.549,2.539h0.965l-0.125,0.644h-0.965l-1.027,4.812c-0.025,0.089-0.043,0.177-0.051,0.263
			s-0.012,0.171-0.012,0.255c0,0.225,0.053,0.38,0.157,0.467c0.104,0.086,0.269,0.129,0.494,0.129c0.157,0,0.31-0.035,0.458-0.105
			c0.149-0.071,0.287-0.169,0.412-0.294c0.125-0.126,0.237-0.276,0.337-0.451c0.099-0.175,0.181-0.364,0.243-0.568H199.404z"/>
		<path fill="#A6A8A7" d="M198.119,135.099l1.701-8.027h2.312l-0.204,0.996c0.142-0.126,0.284-0.248,0.431-0.368
			c0.146-0.121,0.3-0.227,0.459-0.318c0.16-0.091,0.325-0.165,0.498-0.223c0.172-0.058,0.355-0.087,0.549-0.087
			c0.183,0,0.344,0.034,0.482,0.103c0.138,0.067,0.254,0.156,0.348,0.267c0.095,0.109,0.165,0.237,0.213,0.384
			c0.047,0.146,0.07,0.298,0.07,0.455c0,0.141-0.023,0.28-0.07,0.419c-0.048,0.139-0.119,0.263-0.217,0.372
			c-0.096,0.11-0.218,0.2-0.363,0.271c-0.146,0.07-0.316,0.106-0.51,0.106c-0.152,0-0.269-0.026-0.35-0.079
			c-0.08-0.052-0.143-0.117-0.184-0.195c-0.042-0.079-0.072-0.164-0.09-0.255c-0.02-0.092-0.039-0.177-0.06-0.255
			s-0.048-0.144-0.082-0.196c-0.034-0.052-0.091-0.078-0.169-0.078c-0.246,0-0.451,0.056-0.619,0.168
			c-0.167,0.113-0.35,0.261-0.549,0.443l-1.285,6.099H198.119z"/>
		<path fill="#A6A8A7" d="M213.545,132.222c-0.15,0.434-0.315,0.811-0.493,1.129s-0.362,0.588-0.553,0.808s-0.386,0.397-0.584,0.533
			s-0.392,0.24-0.58,0.313s-0.368,0.122-0.54,0.148c-0.174,0.026-0.33,0.039-0.471,0.039c-0.461,0-0.826-0.126-1.098-0.38
			c-0.271-0.253-0.437-0.634-0.494-1.141c-0.203,0.329-0.41,0.594-0.619,0.792s-0.416,0.353-0.619,0.462
			c-0.204,0.11-0.402,0.182-0.596,0.216s-0.374,0.051-0.541,0.051c-0.24,0-0.465-0.036-0.674-0.109s-0.391-0.188-0.545-0.345
			c-0.154-0.157-0.275-0.355-0.365-0.596c-0.088-0.24-0.133-0.53-0.133-0.87c0-0.146,0.011-0.308,0.031-0.482
			c0.021-0.175,0.053-0.364,0.094-0.568l1.09-5.15h2.312l-1.152,5.456c-0.031,0.167-0.047,0.319-0.047,0.455
			c0,0.183,0.034,0.338,0.102,0.466c0.068,0.129,0.193,0.192,0.377,0.192c0.156,0,0.301-0.035,0.431-0.105
			c0.131-0.071,0.249-0.169,0.356-0.294c0.107-0.126,0.201-0.276,0.283-0.451c0.08-0.175,0.152-0.364,0.215-0.568l1.09-5.15h1.678
			c0.136-0.094,0.246-0.198,0.333-0.313c0.086-0.114,0.155-0.24,0.208-0.376c0.052-0.136,0.087-0.277,0.105-0.423
			c0.018-0.146,0.027-0.299,0.027-0.455c0-0.267-0.029-0.53-0.086-0.792c0.125-0.089,0.266-0.163,0.419-0.224
			c0.154-0.06,0.305-0.09,0.45-0.09c0.162,0,0.303,0.053,0.42,0.157s0.177,0.287,0.177,0.549c0,0.24-0.04,0.488-0.122,0.744
			c-0.08,0.256-0.191,0.505-0.333,0.745s-0.308,0.465-0.501,0.674s-0.4,0.387-0.619,0.533l-0.996,4.727
			c-0.026,0.089-0.045,0.177-0.055,0.263c-0.011,0.086-0.016,0.171-0.016,0.255c0,0.225,0.053,0.38,0.16,0.467
			c0.107,0.086,0.273,0.129,0.498,0.129c0.156,0,0.302-0.035,0.436-0.105c0.133-0.071,0.254-0.169,0.363-0.294
			c0.11-0.126,0.207-0.276,0.291-0.451c0.083-0.175,0.154-0.364,0.211-0.568H213.545z"/>
		<path fill="#A6A8A7" d="M219.119,129.65c0,0.779-0.105,1.503-0.317,2.172s-0.502,1.25-0.87,1.744
			c-0.369,0.493-0.805,0.882-1.309,1.164c-0.505,0.282-1.047,0.423-1.627,0.423c-0.764,0-1.342-0.241-1.736-0.725
			s-0.592-1.188-0.592-2.113c0-0.485,0.053-0.956,0.156-1.41c0.105-0.455,0.254-0.881,0.447-1.278
			c0.193-0.396,0.424-0.76,0.693-1.09c0.27-0.329,0.566-0.609,0.891-0.843c0.323-0.232,0.672-0.414,1.046-0.544
			c0.374-0.131,0.762-0.196,1.164-0.196c0.663,0,1.163,0.19,1.497,0.572c0.156-0.089,0.285-0.193,0.385-0.313
			c0.099-0.12,0.178-0.251,0.238-0.393c0.061-0.141,0.101-0.288,0.121-0.442c0.021-0.154,0.032-0.314,0.032-0.482
			c0-0.267-0.028-0.53-0.087-0.791c0.126-0.089,0.266-0.164,0.42-0.224c0.154-0.061,0.305-0.091,0.451-0.091
			c0.162,0,0.301,0.053,0.419,0.157s0.177,0.287,0.177,0.549s-0.047,0.529-0.138,0.804s-0.218,0.538-0.38,0.791
			c-0.162,0.254-0.351,0.486-0.564,0.698c-0.215,0.212-0.441,0.383-0.682,0.514C219.064,128.674,219.119,129.123,219.119,129.65z
			 M217.215,127.832c-0.168,0-0.336,0.064-0.506,0.192s-0.335,0.303-0.494,0.524c-0.16,0.223-0.31,0.481-0.451,0.776
			c-0.141,0.296-0.264,0.613-0.368,0.952c-0.104,0.34-0.187,0.69-0.247,1.051c-0.06,0.36-0.09,0.716-0.09,1.066
			c0,0.438,0.05,0.758,0.148,0.956c0.1,0.198,0.26,0.298,0.479,0.298c0.173,0,0.346-0.06,0.521-0.181
			c0.175-0.12,0.341-0.287,0.498-0.501c0.156-0.215,0.305-0.467,0.442-0.757c0.139-0.29,0.257-0.603,0.356-0.937
			c0.1-0.335,0.178-0.688,0.236-1.059c0.057-0.371,0.086-0.742,0.086-1.113c0-0.402-0.055-0.714-0.161-0.937
			C217.559,127.943,217.408,127.832,217.215,127.832z M216.807,124.649c0.12,0.026,0.243,0.045,0.369,0.055
			c0.125,0.011,0.24,0.016,0.344,0.016c0.246,0,0.434-0.058,0.561-0.172c0.129-0.115,0.192-0.262,0.192-0.439
			c0-0.198-0.062-0.353-0.188-0.462c-0.125-0.11-0.312-0.165-0.564-0.165c-0.178,0-0.348,0.021-0.509,0.062
			c-0.162,0.042-0.312,0.107-0.447,0.196l-0.423-0.674c0.183-0.115,0.416-0.209,0.701-0.282s0.574-0.11,0.866-0.11
			c0.24,0,0.463,0.034,0.667,0.103c0.203,0.067,0.38,0.16,0.529,0.278c0.148,0.117,0.264,0.258,0.344,0.423
			c0.082,0.165,0.122,0.341,0.122,0.529c0,0.188-0.042,0.364-0.126,0.529c-0.083,0.164-0.199,0.311-0.348,0.438
			c-0.15,0.128-0.328,0.232-0.533,0.313c-0.207,0.081-0.436,0.132-0.687,0.153l-0.118,0.65l-0.752-0.039V124.649z"/>
		<path fill="#A6A8A7" d="M228.698,132.222c-0.225,0.658-0.466,1.184-0.726,1.576c-0.258,0.392-0.52,0.69-0.783,0.897
			c-0.264,0.206-0.522,0.341-0.775,0.403c-0.254,0.062-0.488,0.094-0.702,0.094c-0.355,0-0.653-0.051-0.894-0.152
			c-0.24-0.103-0.434-0.238-0.58-0.408c-0.146-0.169-0.252-0.362-0.317-0.58c-0.065-0.217-0.099-0.439-0.099-0.67
			c0-0.271,0.038-0.589,0.114-0.952c0.075-0.363,0.157-0.735,0.247-1.117c0.088-0.382,0.171-0.75,0.246-1.105
			c0.076-0.355,0.114-0.661,0.114-0.917c0-0.549-0.193-0.823-0.58-0.823c-0.146,0-0.282,0.039-0.407,0.118
			c-0.126,0.078-0.24,0.184-0.346,0.317c-0.104,0.133-0.198,0.29-0.281,0.47c-0.084,0.181-0.157,0.373-0.221,0.576l-1.089,5.15
			h-2.312l1.701-8.027h2.312l-0.172,0.831c0.172-0.193,0.344-0.349,0.514-0.466c0.17-0.118,0.336-0.208,0.498-0.271
			c0.162-0.063,0.314-0.104,0.458-0.126c0.144-0.021,0.278-0.031,0.403-0.031c0.256,0,0.494,0.034,0.714,0.102
			c0.22,0.068,0.409,0.176,0.568,0.322c0.159,0.146,0.283,0.334,0.372,0.564c0.089,0.229,0.133,0.504,0.133,0.822
			c0,0.215-0.02,0.446-0.059,0.694s-0.087,0.501-0.145,0.76s-0.119,0.517-0.184,0.772c-0.066,0.256-0.127,0.502-0.185,0.737
			c-0.058,0.234-0.106,0.453-0.146,0.654s-0.059,0.378-0.059,0.529c0,0.198,0.046,0.36,0.137,0.485
			c0.092,0.126,0.26,0.188,0.506,0.188c0.173,0,0.324-0.034,0.455-0.102c0.131-0.068,0.248-0.165,0.353-0.29
			c0.104-0.126,0.2-0.276,0.286-0.451s0.172-0.367,0.255-0.576H228.698z"/>
		<path fill="#A6A8A7" d="M231.881,134.299c-0.121,0.126-0.248,0.242-0.385,0.349c-0.136,0.107-0.283,0.202-0.442,0.282
			c-0.159,0.081-0.331,0.146-0.514,0.192s-0.379,0.07-0.588,0.07c-0.276,0-0.544-0.044-0.8-0.133s-0.482-0.235-0.682-0.439
			c-0.199-0.203-0.357-0.47-0.479-0.799c-0.119-0.33-0.18-0.732-0.18-1.208c0-0.365,0.037-0.757,0.109-1.176
			c0.073-0.418,0.186-0.836,0.338-1.254c0.15-0.418,0.34-0.819,0.568-1.203c0.227-0.384,0.493-0.724,0.799-1.02
			c0.306-0.295,0.652-0.53,1.039-0.705s0.812-0.263,1.277-0.263c0.455,0,0.785,0.078,0.992,0.235c0.206,0.156,0.309,0.35,0.309,0.58
			v0.031l0.157-0.769h2.328l-1.96,9.312c-0.115,0.575-0.283,1.04-0.506,1.396c-0.222,0.355-0.467,0.633-0.736,0.831
			s-0.551,0.332-0.847,0.399c-0.296,0.068-0.573,0.103-0.835,0.103c-0.24,0-0.475-0.042-0.701-0.126
			c-0.228-0.083-0.429-0.201-0.604-0.353c-0.176-0.151-0.316-0.333-0.424-0.545c-0.107-0.211-0.16-0.448-0.16-0.709
			c0-0.376,0.071-0.692,0.215-0.948c0.145-0.257,0.342-0.474,0.592-0.651c0.252-0.178,0.545-0.328,0.883-0.45
			c0.336-0.123,0.698-0.242,1.086-0.356L231.881,134.299z M231.622,135.482c-0.251,0.084-0.486,0.178-0.706,0.282
			c-0.219,0.104-0.408,0.224-0.568,0.357c-0.159,0.133-0.284,0.284-0.376,0.454c-0.091,0.17-0.138,0.362-0.138,0.576
			c0,0.062,0.017,0.126,0.048,0.188s0.075,0.118,0.134,0.168c0.057,0.05,0.125,0.092,0.203,0.126
			c0.078,0.033,0.164,0.051,0.259,0.051c0.083,0,0.171-0.02,0.263-0.059s0.179-0.107,0.263-0.204
			c0.083-0.097,0.161-0.227,0.235-0.388c0.072-0.162,0.135-0.363,0.188-0.604L231.622,135.482z M233.096,128.545
			c-0.011-0.052-0.027-0.109-0.051-0.172s-0.059-0.123-0.105-0.181s-0.111-0.105-0.192-0.145s-0.185-0.059-0.31-0.059
			c-0.225,0-0.438,0.073-0.639,0.219c-0.201,0.146-0.386,0.341-0.553,0.584c-0.168,0.243-0.316,0.519-0.447,0.827
			s-0.242,0.626-0.333,0.952c-0.092,0.327-0.161,0.648-0.208,0.965s-0.07,0.6-0.07,0.851c0,0.308,0.029,0.546,0.086,0.713
			c0.058,0.167,0.127,0.291,0.208,0.372s0.169,0.13,0.263,0.146s0.178,0.023,0.25,0.023c0.11,0,0.227-0.024,0.35-0.074
			s0.244-0.124,0.364-0.224s0.229-0.225,0.329-0.376s0.181-0.329,0.243-0.533L233.096,128.545z"/>
		<path fill="#A6A8A7" d="M244.172,132.222c-0.151,0.434-0.32,0.811-0.506,1.129s-0.379,0.588-0.58,0.808s-0.407,0.397-0.619,0.533
			c-0.211,0.136-0.416,0.24-0.615,0.313s-0.388,0.122-0.568,0.148c-0.18,0.026-0.341,0.039-0.482,0.039
			c-0.24,0-0.465-0.036-0.674-0.109s-0.391-0.188-0.545-0.345c-0.154-0.157-0.275-0.355-0.364-0.596s-0.134-0.53-0.134-0.87
			c0-0.146,0.012-0.308,0.031-0.482c0.021-0.175,0.053-0.364,0.095-0.568l0.964-4.507h-0.533l0.134-0.644h0.525l0.485-2.218
			l2.375-0.321l-0.549,2.539h0.965l-0.125,0.644h-0.965l-1.027,4.812c-0.025,0.089-0.043,0.177-0.051,0.263
			s-0.012,0.171-0.012,0.255c0,0.225,0.053,0.38,0.157,0.467c0.104,0.086,0.269,0.129,0.494,0.129c0.157,0,0.31-0.035,0.458-0.105
			c0.149-0.071,0.287-0.169,0.412-0.294c0.125-0.126,0.237-0.276,0.337-0.451c0.099-0.175,0.181-0.364,0.243-0.568H244.172z"/>
		<path fill="#A6A8A7" d="M252.277,132.222c-0.225,0.658-0.467,1.184-0.725,1.576c-0.259,0.392-0.521,0.69-0.784,0.897
			c-0.264,0.206-0.522,0.341-0.776,0.403s-0.486,0.094-0.701,0.094c-0.355,0-0.653-0.051-0.894-0.152
			c-0.241-0.103-0.435-0.238-0.58-0.408c-0.146-0.169-0.253-0.362-0.317-0.58c-0.065-0.217-0.098-0.439-0.098-0.67
			c0-0.271,0.037-0.589,0.113-0.952s0.158-0.735,0.246-1.117c0.09-0.382,0.172-0.75,0.248-1.105
			c0.075-0.355,0.113-0.661,0.113-0.917c0-0.549-0.193-0.823-0.58-0.823c-0.146,0-0.282,0.039-0.408,0.118
			c-0.125,0.078-0.24,0.184-0.344,0.317c-0.105,0.133-0.199,0.29-0.283,0.47c-0.084,0.181-0.156,0.373-0.219,0.576l-1.09,5.15
			h-2.312l2.328-10.92l2.375-0.321l-0.862,4.045c0.173-0.193,0.344-0.349,0.514-0.466c0.169-0.118,0.335-0.208,0.497-0.271
			c0.162-0.063,0.315-0.104,0.459-0.126c0.145-0.021,0.278-0.031,0.404-0.031c0.256,0,0.494,0.034,0.713,0.102
			c0.22,0.068,0.408,0.176,0.568,0.322c0.159,0.146,0.283,0.334,0.373,0.564c0.088,0.229,0.133,0.504,0.133,0.822
			c0,0.215-0.02,0.446-0.059,0.694s-0.088,0.501-0.146,0.76s-0.119,0.517-0.185,0.772c-0.064,0.256-0.127,0.502-0.184,0.737
			c-0.058,0.234-0.105,0.453-0.145,0.654c-0.04,0.201-0.06,0.378-0.06,0.529c0,0.198,0.046,0.36,0.138,0.485
			c0.091,0.126,0.26,0.188,0.506,0.188c0.172,0,0.323-0.034,0.454-0.102c0.13-0.068,0.248-0.165,0.353-0.29
			c0.104-0.126,0.199-0.276,0.286-0.451s0.171-0.367,0.255-0.576H252.277z"/>
		<path fill="#A6A8A7" d="M260.721,132.222c-0.152,0.434-0.316,0.811-0.494,1.129s-0.362,0.588-0.553,0.808
			c-0.191,0.22-0.386,0.397-0.584,0.533c-0.199,0.136-0.393,0.24-0.58,0.313c-0.188,0.073-0.369,0.122-0.541,0.148
			s-0.329,0.039-0.471,0.039c-0.455,0-0.816-0.124-1.086-0.372c-0.269-0.248-0.432-0.615-0.489-1.102
			c-0.131,0.184-0.274,0.362-0.431,0.537c-0.157,0.175-0.332,0.332-0.525,0.471s-0.409,0.251-0.646,0.337
			c-0.238,0.086-0.501,0.129-0.789,0.129c-0.276,0-0.543-0.044-0.799-0.133s-0.483-0.235-0.682-0.439
			c-0.199-0.203-0.358-0.47-0.479-0.799c-0.12-0.33-0.18-0.732-0.18-1.208c0-0.365,0.036-0.757,0.109-1.176
			c0.072-0.418,0.186-0.836,0.337-1.254s0.341-0.819,0.568-1.203s0.493-0.724,0.8-1.02c0.305-0.295,0.651-0.53,1.038-0.705
			s0.812-0.263,1.278-0.263c0.454,0,0.785,0.078,0.991,0.235c0.206,0.156,0.31,0.35,0.31,0.58v0.117l0.172-0.854h2.312l-1.152,5.456
			c-0.025,0.089-0.044,0.177-0.055,0.263c-0.01,0.086-0.016,0.171-0.016,0.255c0,0.46,0.22,0.689,0.658,0.689
			c0.157,0,0.303-0.04,0.436-0.121s0.255-0.189,0.365-0.325c0.109-0.136,0.205-0.297,0.289-0.482s0.154-0.38,0.212-0.584H260.721z
			 M256.676,128.601c0-0.048-0.012-0.106-0.031-0.177c-0.021-0.07-0.057-0.139-0.106-0.204s-0.116-0.12-0.2-0.164
			c-0.084-0.045-0.19-0.066-0.321-0.066c-0.225,0-0.438,0.073-0.639,0.219c-0.201,0.146-0.386,0.341-0.553,0.584
			s-0.315,0.519-0.446,0.827s-0.242,0.626-0.334,0.952c-0.092,0.327-0.16,0.648-0.207,0.965s-0.07,0.6-0.07,0.851
			c0,0.308,0.028,0.546,0.086,0.713c0.057,0.167,0.127,0.291,0.207,0.372c0.082,0.081,0.169,0.13,0.264,0.146
			c0.094,0.016,0.177,0.023,0.25,0.023c0.121,0,0.247-0.03,0.381-0.09c0.133-0.061,0.261-0.149,0.384-0.267
			c0.122-0.118,0.235-0.266,0.337-0.443s0.18-0.384,0.231-0.619L256.676,128.601z M256.017,126.092l-0.948-3.033h1.686l0.471,3.033
			H256.017z"/>
		<path fill="#A6A8A7" d="M268.825,132.222c-0.225,0.658-0.466,1.184-0.726,1.576c-0.258,0.392-0.52,0.69-0.783,0.897
			c-0.264,0.206-0.522,0.341-0.775,0.403c-0.254,0.062-0.488,0.094-0.702,0.094c-0.355,0-0.653-0.051-0.894-0.152
			c-0.24-0.103-0.434-0.238-0.58-0.408c-0.146-0.169-0.252-0.362-0.317-0.58c-0.065-0.217-0.099-0.439-0.099-0.67
			c0-0.271,0.038-0.589,0.114-0.952c0.075-0.363,0.157-0.735,0.247-1.117c0.088-0.382,0.171-0.75,0.246-1.105
			c0.076-0.355,0.114-0.661,0.114-0.917c0-0.549-0.193-0.823-0.58-0.823c-0.146,0-0.282,0.039-0.407,0.118
			c-0.126,0.078-0.24,0.184-0.346,0.317c-0.104,0.133-0.198,0.29-0.281,0.47c-0.084,0.181-0.157,0.373-0.221,0.576l-1.089,5.15
			h-2.312l1.701-8.027h2.312l-0.172,0.831c0.172-0.193,0.344-0.349,0.514-0.466c0.17-0.118,0.336-0.208,0.498-0.271
			c0.162-0.063,0.314-0.104,0.458-0.126c0.144-0.021,0.278-0.031,0.403-0.031c0.256,0,0.494,0.034,0.714,0.102
			c0.22,0.068,0.409,0.176,0.568,0.322c0.159,0.146,0.283,0.334,0.372,0.564c0.089,0.229,0.133,0.504,0.133,0.822
			c0,0.215-0.02,0.446-0.059,0.694s-0.087,0.501-0.145,0.76s-0.119,0.517-0.184,0.772c-0.066,0.256-0.127,0.502-0.185,0.737
			c-0.058,0.234-0.106,0.453-0.146,0.654s-0.059,0.378-0.059,0.529c0,0.198,0.046,0.36,0.137,0.485
			c0.092,0.126,0.26,0.188,0.506,0.188c0.173,0,0.324-0.034,0.455-0.102c0.131-0.068,0.248-0.165,0.353-0.29
			c0.104-0.126,0.2-0.276,0.286-0.451s0.172-0.367,0.255-0.576H268.825z"/>
		<path fill="#A6A8A7" d="M267.524,135.099l2.328-10.92l2.375-0.321l-0.862,4.029c0.172-0.188,0.344-0.34,0.514-0.454
			c0.17-0.115,0.336-0.204,0.498-0.267c0.162-0.063,0.314-0.104,0.458-0.126c0.144-0.021,0.278-0.031,0.403-0.031
			c0.256,0,0.494,0.034,0.714,0.102c0.22,0.068,0.409,0.176,0.568,0.322c0.159,0.146,0.283,0.334,0.372,0.564
			c0.089,0.229,0.133,0.504,0.133,0.822c0,0.215-0.02,0.446-0.059,0.694s-0.087,0.501-0.145,0.76s-0.119,0.517-0.184,0.772
			c-0.066,0.256-0.127,0.502-0.186,0.737c-0.057,0.234-0.105,0.453-0.145,0.654s-0.059,0.378-0.059,0.529
			c0,0.198,0.046,0.36,0.137,0.485c0.092,0.126,0.26,0.188,0.506,0.188c0.256,0,0.434-0.034,0.533-0.102
			c-0.037,0.292-0.109,0.542-0.219,0.748c-0.11,0.207-0.245,0.378-0.404,0.514c-0.16,0.136-0.338,0.235-0.533,0.298
			s-0.4,0.094-0.615,0.094c-0.309,0-0.566-0.051-0.771-0.152c-0.207-0.103-0.373-0.238-0.498-0.408
			c-0.126-0.169-0.215-0.362-0.268-0.58c-0.052-0.217-0.078-0.439-0.078-0.67c0-0.271,0.038-0.589,0.114-0.952
			c0.075-0.363,0.157-0.735,0.247-1.117c0.088-0.382,0.171-0.75,0.246-1.105c0.076-0.355,0.114-0.661,0.114-0.917
			c0-0.549-0.193-0.823-0.58-0.823c-0.136,0-0.263,0.033-0.38,0.098c-0.118,0.065-0.228,0.157-0.33,0.274
			c-0.102,0.118-0.194,0.255-0.277,0.412c-0.084,0.156-0.157,0.324-0.221,0.502l-1.136,5.346H267.524z"/>
	</g>
	<g>
		<g>
			<g>
				<path fill="#231F20" d="M39.03,89.291c0-1.749-0.231-3.042-0.695-3.882c-0.462-0.839-1.412-1.259-2.852-1.259H34.97v-1.541
					h5.087c1.198,0,2.123,0.162,2.774,0.49c0.651,0.323,1.163,0.879,1.542,1.668c2.021-1.781,4.349-2.672,6.989-2.672
					c3.459,0,6.123,1.174,7.991,3.52c1.865,2.348,2.8,5.369,2.8,9.07s-0.95,6.723-2.853,9.07c-1.9,2.346-4.633,3.52-8.195,3.52
					c-1.405,0-2.723-0.258-3.957-0.771c-0.548-0.205-1.029-0.463-1.438-0.771v10.791h-6.68V89.291z M55.216,94.686
					c0-3.15-0.394-5.651-1.182-7.502c-0.788-1.85-2.021-2.774-3.7-2.774c-1.919,0-3.581,0.702-4.983,2.106l0.153,0.719
					c0.137,0.412,0.206,0.996,0.206,1.75v14.438c0.376,0.309,0.787,0.566,1.232,0.771c0.96,0.515,2.005,0.769,3.135,0.769
					C53.503,104.962,55.216,101.537,55.216,94.686z"/>
				<path fill="#231F20" d="M68.55,103.757c-1.868-2.349-2.8-5.37-2.8-9.071c0-3.699,0.95-6.723,2.852-9.069
					c1.9-2.347,4.634-3.519,8.197-3.519c1.233,0,2.551,0.256,3.956,0.771c0.514,0.239,0.994,0.495,1.439,0.771v-4.113
					c0-1.746-0.24-3.037-0.721-3.877c-0.479-0.84-1.437-1.261-2.877-1.261h-0.514v-1.542h6.168c1.231,0,2.174,0.206,2.825,0.619
					c0.651,0.41,1.115,1.086,1.388,2.028c0.273,0.943,0.411,2.287,0.411,4.031v27.236h-4.369l-1.797-2.311h-0.257
					c-0.308,0.479-0.79,0.96-1.439,1.438c-1.164,0.924-2.655,1.389-4.47,1.389C73.081,107.275,70.417,106.104,68.55,103.757z
					 M81.011,103.318c0.376-0.375,0.771-0.942,1.183-1.696V85.947c-0.344-0.27-0.754-0.527-1.235-0.768
					c-1.095-0.516-2.14-0.771-3.132-0.771c-3.427,0-5.139,3.426-5.139,10.277c0,3.187,0.386,5.695,1.156,7.527
					c0.771,1.833,2.011,2.748,3.726,2.748C78.837,104.962,79.985,104.416,81.011,103.318z"/>
				<path fill="#231F20" d="M97.662,89.291c0-1.749-0.241-3.042-0.72-3.882c-0.48-0.839-1.438-1.259-2.879-1.259h-0.514v-1.541
					h6.168c1.233,0,2.175,0.205,2.826,0.617s1.113,1.086,1.387,2.029c0.273,0.941,0.412,2.285,0.412,4.034v17.47h-6.68V89.291z
					 M98.149,78.704c-0.668-0.752-1.002-1.677-1.002-2.774c0-0.891,0.265-1.593,0.797-2.107c0.531-0.515,1.207-0.771,2.028-0.771
					c1.235,0,2.186,0.377,2.854,1.13c0.667,0.755,1.002,1.679,1.002,2.777c0,0.891-0.266,1.594-0.796,2.105
					c-0.532,0.514-1.208,0.771-2.03,0.771C99.767,79.834,98.816,79.458,98.149,78.704z"/>
			</g>
		</g>
		<g>
			<path fill="#0090C7" d="M147.633,52.258c-1.506-4.506-4.932-5.562-5.059-5.6c0.078-0.104,2.183-3.007,0.677-7.515
				c-1.535-4.594-9.962-6.788-18.862-0.883c-10.393,7.124-17.025,18.844-16.694,20.05l-0.003,0.001c0,0.002,0.003,0.005,0.003,0.006
				c0.002,0.002,0,0.005,0,0.008l0.003-0.002c0.461,1.162,12.809,6.536,25.397,5.98C143.756,63.673,149.17,56.85,147.633,52.258z"/>
			<path fill="#F16531" d="M61.104,52.258c1.505-4.506,4.934-5.562,5.06-5.6c-0.078-0.104-2.183-3.007-0.678-7.515
				c1.537-4.594,9.964-6.788,18.862-0.883c10.391,7.124,17.025,18.844,16.695,20.05l0.003,0.001c0,0.002-0.003,0.005-0.003,0.006
				c-0.002,0.002-0.002,0.005-0.002,0.008l-0.004-0.002c-0.458,1.162-12.808,6.536-25.395,5.98
				C64.982,63.673,59.569,56.85,61.104,52.258z"/>
			<path fill="#79A242" d="M111.27,15.335c-4.751,0.005-6.833,2.923-6.909,3.03c-0.075-0.106-2.164-3.019-6.918-3.017
				c-4.843,0.01-9.588,7.313-6.793,17.621c3.478,12.108,12.504,22.104,13.751,22.172v0.002c0.002,0,0.005-0.001,0.006-0.002
				c0.004,0,0.006,0.001,0.009,0.001v-0.003c1.249-0.069,10.246-10.089,13.693-22.206C120.877,22.619,116.114,15.328,111.27,15.335z
				"/>
		</g>
	</g>
</g>
</svg>
