<?xml version="1.0" encoding="utf-8"?>
<!-- Generator: Adobe Illustrator 16.0.0, SVG Export Plug-In . SVG Version: 6.00 Build 0)  -->
<!DOCTYPE svg PUBLIC "-//W3C//DTD SVG 1.1//EN" "http://www.w3.org/Graphics/SVG/1.1/DTD/svg11.dtd">
<svg version="1.1" id="Layer_1" xmlns="http://www.w3.org/2000/svg" xmlns:xlink="http://www.w3.org/1999/xlink" x="0px" y="0px"
	 width="841.889px" height="595.281px" viewBox="0 0 841.889 595.281" enable-background="new 0 0 841.889 595.281"
	 xml:space="preserve">
<g>
	<g>
		<path fill="#AFEA28" d="M375.427,167.742c-0.412-58.584-28.667-113.261-74.51-145.021c-39.062,27.062-65.358,70.759-72.54,119.334
			c33.271,27.108,53.353,69.456,53.353,114.399c0,13.14-1.727,26.047-4.981,38.422c7.375,7.565,15.455,14.438,24.172,20.478
			c18.366-12.728,33.896-29.135,45.963-47.993c-0.263-3.615-0.409-7.251-0.409-10.906
			C346.471,223.925,357.001,192.761,375.427,167.742z"/>
	</g>
</g>
<g>
	<g>
		<path fill="#AFEA28" d="M206.56,160.237c-29.447,21.622-47.416,57.697-47.416,96.22c0,38.523,17.97,74.601,47.416,96.222
			c29.448-21.621,47.417-57.696,47.417-96.222C253.978,217.932,236.008,181.859,206.56,160.237z"/>
	</g>
</g>
<g>
	<g>
		<path fill="#AFEA28" d="M589.136,169.038c0-59.076-28.352-114.323-74.527-146.314C475.813,49.6,449.61,92.891,442.22,141.074
			c34.004,27.063,54.588,69.888,54.588,115.384c0,13.521-1.835,26.807-5.28,39.516c7.081,7.132,14.789,13.64,23.082,19.385
			c19.006-13.167,34.98-30.279,47.213-49.968c-0.177-2.962-0.271-5.939-0.271-8.933c0-31.715,10.005-62.133,27.578-86.817
			C589.127,169.435,589.136,169.237,589.136,169.038z"/>
	</g>
</g>
<g>
	<g>
		<path fill="#AFEA28" d="M421.639,160.237c-29.448,21.622-47.417,57.697-47.417,96.22c0,38.523,17.971,74.601,47.417,96.222
			c29.447-21.621,47.416-57.696,47.416-96.222C469.055,217.932,451.086,181.859,421.639,160.237z"/>
	</g>
</g>
<g>
	<g>
		<path fill="#AFEA28" d="M636.716,160.237c-29.447,21.622-47.416,57.697-47.416,96.22c0,38.523,17.969,74.601,47.416,96.222
			c29.445-21.621,47.417-57.696,47.417-96.222C684.133,217.932,666.161,181.859,636.716,160.237z"/>
	</g>
</g>
<g>
	<g>
		<path fill="#AFEA28" d="M697.771,469.881h-45.613c0.771-2.176,1.21-4.502,1.21-6.938v-88.088
			c-3.029,2.238-6.148,4.369-9.375,6.354c-2.229,1.373-4.754,2.062-7.272,2.062c-2.521,0-5.045-0.688-7.274-2.062
			c-6.271-3.858-12.177-8.226-17.701-13.01v94.742c0,2.438,0.439,4.765,1.211,6.938H531.44c0.771-2.176,1.21-4.502,1.21-6.938
			V336.594c-3.498,2.501-7.086,4.886-10.764,7.147c-2.229,1.375-4.754,2.062-7.274,2.062c-2.52,0-5.045-0.688-7.271-2.062
			c-5.65-3.479-11.089-7.251-16.314-11.278v130.479c0,2.438,0.439,4.765,1.21,6.938H438.47c0.769-2.176,1.211-4.503,1.211-6.938
			v-89.114c-3.461,2.623-7.046,5.096-10.767,7.384c-2.229,1.372-4.755,2.062-7.272,2.062c-2.521,0-5.045-0.688-7.274-2.062
			c-5.751-3.538-11.188-7.512-16.312-11.83v93.562c0,2.438,0.438,4.766,1.21,6.938h-81.512c0.769-2.176,1.21-4.502,1.21-6.938
			V336.594c-3.498,2.5-7.086,4.885-10.767,7.146c-2.229,1.375-4.754,2.062-7.272,2.062c-2.521,0-5.044-0.688-7.274-2.062
			c-5.647-3.479-11.088-7.251-16.312-11.278v130.479c0,2.438,0.438,4.765,1.211,6.938h-53.762c0.769-2.176,1.21-4.503,1.21-6.938
			v-90.184c-3.888,3.022-7.936,5.854-12.15,8.448c-2.229,1.374-4.754,2.062-7.272,2.062c-2.521,0-5.047-0.688-7.274-2.062
			c-5.229-3.22-10.212-6.78-14.926-10.649v92.386c0,2.438,0.438,4.765,1.21,6.938h-41.458c-11.495,0.002-20.813,9.317-20.813,20.812
			s9.318,20.813,20.813,20.813h553.649c11.495,0,20.813-9.318,20.813-20.813S709.266,469.881,697.771,469.881z"/>
	</g>
</g>
<g>
	<g>
		<path fill="#AFEA28" d="M647.818,530.932H313.406c-11.493,0-20.812,9.317-20.812,20.812c0,11.495,9.318,20.814,20.812,20.814
			h334.411c11.495,0,20.813-9.319,20.813-20.814C668.63,540.25,659.313,530.932,647.818,530.932z"/>
	</g>
</g>
<g>
	<g>
		<path fill="#AFEA28" d="M244.026,530.932h-31.915c-11.492,0-20.812,9.317-20.812,20.812c0,11.495,9.318,20.814,20.812,20.814
			h31.915c11.495,0,20.813-9.319,20.813-20.814C264.839,540.25,255.521,530.932,244.026,530.932z"/>
	</g>
</g>
</svg>
