<?xml version="1.0" encoding="utf-8"?>
<!-- Generator: Adobe Illustrator 16.0.0, SVG Export Plug-In . SVG Version: 6.00 Build 0)  -->
<!DOCTYPE svg PUBLIC "-//W3C//DTD SVG 1.1//EN" "http://www.w3.org/Graphics/SVG/1.1/DTD/svg11.dtd">
<svg version="1.1" id="Capa_1" xmlns="http://www.w3.org/2000/svg" xmlns:xlink="http://www.w3.org/1999/xlink" x="0px" y="0px"
	 width="40px" height="40px" viewBox="-4.22 -4.22 40 40" enable-background="new -4.22 -4.22 40 40" xml:space="preserve">
<g>
	<g>
		<path fill="#89AC38" d="M16.646,16.945c0.959-0.457,1.272-1.801,0.702-2.993c-0.571-1.198-1.812-1.803-2.771-1.346
			s-1.272,1.803-0.701,2.999C14.447,16.801,15.688,17.404,16.646,16.945z"/>
		<path fill="#89AC38" d="M19.52,9.796c0.922,5.771-3.185,10.097-3.185,10.097s-3.386-5.729-9.08-7.458
			c11.076,8.101,4.771,18.196,4.771,18.196h3.206C15.234,30.631,22.686,17.77,19.52,9.796z"/>
		<path fill="#89AC38" d="M13.269,10.455c-0.062-0.094-0.125-0.19-0.188-0.298C12.788,9.65,12.653,9.18,12.653,9.18
			s0.34,0.354,0.633,0.857c0.061,0.105,0.112,0.212,0.163,0.312c0.046-0.241,0.1-0.734-0.136-1.144
			c-0.321-0.561-1.065-0.733-1.065-0.733s-0.224,0.732,0.101,1.292C12.582,10.173,13.038,10.374,13.269,10.455z"/>
		<path fill="#89AC38" d="M20.622,14.7c0.186,0.158,0.588,0.452,1.057,0.452c0.646,0,1.168-0.559,1.168-0.559
			s-0.521-0.558-1.168-0.558c-0.469,0-0.871,0.294-1.057,0.454c0.109-0.01,0.227-0.016,0.352-0.016c0.584,0,1.062,0.116,1.062,0.116
			s-0.479,0.118-1.062,0.117C20.848,14.715,20.733,14.708,20.622,14.7z"/>
		<path fill="#89AC38" d="M18.276,10.04c0.291-0.506,0.633-0.859,0.633-0.859s-0.137,0.472-0.43,0.979
			c-0.062,0.104-0.125,0.206-0.188,0.298c0.232-0.081,0.688-0.283,0.922-0.688c0.324-0.561,0.104-1.294,0.104-1.294
			S18.571,8.653,18.25,9.21c-0.234,0.406-0.184,0.898-0.137,1.144C18.159,10.252,18.213,10.147,18.276,10.04z"/>
		<path fill="#89AC38" d="M15.519,6.994c0-1.303,0.261-2.354,0.261-2.354s0.264,1.055,0.264,2.354c0,0.273-0.015,0.533-0.033,0.779
			c0.358-0.413,1.011-1.308,1.011-2.352c0-1.438-1.24-2.599-1.24-2.599s-1.24,1.163-1.24,2.6c0,1.044,0.651,1.938,1.01,2.352
			C15.532,7.529,15.519,7.27,15.519,6.994z"/>
		<path fill="#89AC38" d="M7.217,11.084c0.905,0.521,2.005,0.401,2.542,0.3c-0.222-0.104-0.455-0.226-0.692-0.362
			C7.941,10.373,7.159,9.62,7.159,9.62s1.043,0.3,2.169,0.948c0.236,0.14,0.457,0.278,0.659,0.421
			c-0.178-0.52-0.625-1.53-1.529-2.054C7.216,8.218,5.588,8.71,5.588,8.71S5.974,10.367,7.217,11.084z"/>
		<path fill="#89AC38" d="M24.342,18.107c-0.904-0.521-2.004-0.402-2.541-0.301c0.223,0.105,0.455,0.229,0.693,0.363
			c1.125,0.648,1.906,1.4,1.906,1.4s-1.043-0.299-2.17-0.947c-0.236-0.141-0.457-0.279-0.66-0.42
			c0.18,0.518,0.625,1.527,1.529,2.051c1.242,0.719,2.871,0.227,2.871,0.227S25.584,18.824,24.342,18.107z"/>
		<path fill="#89AC38" d="M9.987,18.205c-0.202,0.139-0.422,0.277-0.658,0.418c-1.126,0.646-2.17,0.951-2.17,0.951
			s0.78-0.756,1.906-1.404c0.239-0.139,0.473-0.256,0.693-0.363c-0.536-0.104-1.638-0.223-2.542,0.301
			c-1.243,0.719-1.631,2.373-1.631,2.373s1.628,0.492,2.871-0.225C9.362,19.732,9.809,18.721,9.987,18.205z"/>
		<path fill="#89AC38" d="M21.573,10.985c0.201-0.139,0.422-0.277,0.66-0.417c1.125-0.648,2.168-0.948,2.168-0.948
			s-0.779,0.753-1.906,1.4c-0.238,0.14-0.473,0.258-0.691,0.362c0.535,0.104,1.637,0.224,2.539-0.3
			c1.244-0.718,1.631-2.374,1.631-2.374s-1.627-0.491-2.869,0.227C22.198,9.457,21.75,10.469,21.573,10.985z"/>
		<path fill="#89AC38" d="M10.941,6.831c-0.186-0.273-0.375-0.567-0.56-0.889C9.509,4.436,9.106,3.036,9.106,3.036
			s1.012,1.048,1.881,2.56c0.187,0.318,0.346,0.629,0.486,0.928c0.14-0.719,0.299-2.192-0.401-3.404
			C10.11,1.451,7.89,0.931,7.89,0.931S7.231,3.113,8.193,4.779C8.893,5.992,10.251,6.591,10.941,6.831z"/>
		<path fill="#89AC38" d="M20.62,22.361c0.186,0.273,0.377,0.566,0.561,0.887c0.873,1.514,1.275,2.91,1.275,2.91
			s-1.012-1.051-1.883-2.561c-0.186-0.32-0.346-0.631-0.486-0.928c-0.137,0.719-0.297,2.189,0.4,3.404
			c0.965,1.666,3.184,2.188,3.184,2.188s0.662-2.184-0.301-3.85C22.668,23.199,21.311,22.6,20.62,22.361z"/>
		<path fill="#89AC38" d="M5.588,14.947c-1.743,0-3.156-0.352-3.156-0.352s1.413-0.352,3.156-0.352c0.37,0,0.719,0.02,1.048,0.044
			c-0.553-0.48-1.751-1.356-3.153-1.356C1.56,12.932,0,14.595,0,14.595s1.561,1.664,3.481,1.663c1.401,0,2.601-0.875,3.152-1.354
			C6.306,14.929,5.956,14.947,5.588,14.947z"/>
		<path fill="#89AC38" d="M28.077,12.935c-1.4,0-2.6,0.872-3.152,1.354c0.33-0.025,0.68-0.044,1.047-0.043
			c1.744,0,3.156,0.351,3.156,0.351s-1.412,0.354-3.154,0.354c-0.369,0-0.719-0.021-1.049-0.043
			c0.553,0.479,1.752,1.354,3.152,1.354c1.924,0,3.48-1.661,3.48-1.661S29.999,12.933,28.077,12.935z"/>
		<path fill="#89AC38" d="M10.988,23.598c-0.87,1.51-1.882,2.561-1.882,2.561s0.402-1.4,1.274-2.91
			c0.186-0.318,0.375-0.611,0.562-0.889c-0.69,0.24-2.05,0.842-2.75,2.055c-0.963,1.666-0.303,3.85-0.303,3.85
			s2.221-0.52,3.183-2.186c0.701-1.213,0.542-2.689,0.403-3.406C11.33,22.967,11.171,23.275,10.988,23.598z"/>
		<path fill="#89AC38" d="M20.573,5.593c0.869-1.51,1.881-2.558,1.881-2.558s-0.402,1.397-1.275,2.906
			c-0.184,0.317-0.373,0.613-0.559,0.888c0.689-0.239,2.049-0.839,2.748-2.053c0.963-1.666,0.303-3.851,0.303-3.851
			s-2.219,0.521-3.184,2.188c-0.701,1.213-0.543,2.688-0.402,3.404C20.229,6.225,20.387,5.914,20.573,5.593z"/>
	</g>
</g>
</svg>
